M48
INCH
T31C0.020
T30C0.125
T29C0.042
%
T31
X009000Y008000
X011000Y008000
X013000Y008000
X015000Y008000
X017000Y008000
X019000Y008000
T29
X004400Y024500
X005000Y015000
X005000Y014000
X005400Y024500
X006000Y015000
X006000Y014000
X006400Y024500
X007000Y015000
X007000Y014000
X007400Y024500
X008000Y015000
X008000Y014000
X008000Y005500
X008400Y024500
X009000Y015000
X009000Y014000
X009000Y005500
X009400Y024500
X010000Y015000
X010000Y014000
X010000Y005500
X010400Y024500
X011000Y015000
X011000Y014000
X011000Y005500
X011400Y024500
X012000Y020000
X012000Y019000
X012000Y015000
X012000Y014000
X012000Y005500
X012400Y024500
X013000Y020000
X013000Y019000
X013000Y005500
X013400Y024500
X014000Y020000
X014000Y019000
X014000Y005500
X015000Y024500
X015000Y020000
X015000Y019000
X015000Y005500
X016000Y024500
X016000Y020000
X016000Y019000
X017000Y024500
X017000Y020000
X017000Y019000
X017000Y005500
X018000Y024500
X018000Y005500
X019000Y024500
X019000Y005500
X020000Y024500
X020000Y005500
X021000Y024500
X021000Y005500
X022000Y024500
X022000Y005500
X022050Y016500
X022050Y015500
X022050Y014500
X023050Y016500
X023050Y015500
X023050Y014500
T30
X002500Y027500
X002500Y005500
X002500Y002500
X003000Y024500
X022500Y027500
X022500Y002500
X023000Y018500
X023000Y007500
M30
