G04 start of page 8 for group -4079 idx -4079 *
G04 Title: (unknown), topsilk *
G04 Creator: pcb 20140316 *
G04 CreationDate: Wed 25 Jul 2018 01:27:56 PM GMT UTC *
G04 For: thomasc *
G04 Format: Gerber/RS-274X *
G04 PCB-Dimensions (mil): 2500.00 3000.00 *
G04 PCB-Coordinate-Origin: lower left *
%MOIN*%
%FSLAX25Y25*%
%LNTOPSILK*%
%ADD41C,0.0150*%
%ADD40C,0.0120*%
%ADD39C,0.0100*%
G54D39*X130000Y205000D02*Y210000D01*
Y185000D02*Y180000D01*
X115000Y200000D02*X110000D01*
X115000Y190000D02*X110000D01*
X39750Y211000D02*X40500Y210250D01*
X38250Y211000D02*X39750D01*
X37500Y210250D02*X38250Y211000D01*
X37500Y210250D02*Y205750D01*
X38250Y205000D01*
X39750Y208300D02*X40500Y207550D01*
X37500Y208300D02*X39750D01*
X38250Y205000D02*X39750D01*
X40500Y205750D01*
Y207550D02*Y205750D01*
X42300D02*X43050Y205000D01*
X42300Y206950D02*Y205750D01*
Y206950D02*X43350Y208000D01*
X44250D01*
X45300Y206950D01*
Y205750D01*
X44550Y205000D02*X45300Y205750D01*
X43050Y205000D02*X44550D01*
X42300Y209050D02*X43350Y208000D01*
X42300Y210250D02*Y209050D01*
Y210250D02*X43050Y211000D01*
X44550D01*
X45300Y210250D01*
Y209050D01*
X44250Y208000D02*X45300Y209050D01*
X47100Y205750D02*X47850Y205000D01*
X47100Y210250D02*Y205750D01*
Y210250D02*X47850Y211000D01*
X49350D01*
X50100Y210250D01*
Y205750D01*
X49350Y205000D02*X50100Y205750D01*
X47850Y205000D02*X49350D01*
X47100Y206500D02*X50100Y209500D01*
X51900Y211000D02*X54900D01*
X55650Y210250D01*
Y208750D01*
X54900Y208000D02*X55650Y208750D01*
X52650Y208000D02*X54900D01*
X52650Y211000D02*Y205000D01*
X53850Y208000D02*X55650Y205000D01*
X57500Y177250D02*X60500Y181000D01*
X57500Y177250D02*X61250D01*
X60500Y181000D02*Y175000D01*
X63800D02*X66800Y181000D01*
X63050D02*X66800D01*
X68600D02*Y175000D01*
Y177250D02*X70850Y175000D01*
X68600Y177250D02*X70100Y178750D01*
X95000Y203500D02*Y197500D01*
X98000D01*
X99800Y200800D02*X102050D01*
X99800Y197500D02*X102800D01*
X99800Y203500D02*Y197500D01*
Y203500D02*X102800D01*
X105350D02*Y197500D01*
X107300Y203500D02*X108350Y202450D01*
Y198550D01*
X107300Y197500D02*X108350Y198550D01*
X104600Y197500D02*X107300D01*
X104600Y203500D02*X107300D01*
X95000Y193500D02*X98000D01*
X98750Y192750D01*
Y191250D01*
X98000Y190500D02*X98750Y191250D01*
X95750Y190500D02*X98000D01*
X95750Y193500D02*Y187500D01*
X96950Y190500D02*X98750Y187500D01*
X101300D02*X103550D01*
X104300Y188250D01*
X103550Y189000D02*X104300Y188250D01*
X101300Y189000D02*X103550D01*
X100550Y189750D02*X101300Y189000D01*
X100550Y189750D02*X101300Y190500D01*
X103550D01*
X104300Y189750D01*
X100550Y188250D02*X101300Y187500D01*
X106850Y193500D02*Y188250D01*
X107600Y187500D01*
X106100Y191250D02*X107600D01*
X120000Y218500D02*X121500Y212500D01*
X123000Y218500D01*
X127800D02*Y212500D01*
X127050D02*X127800Y213250D01*
X125550Y212500D02*X127050D01*
X124800Y213250D02*X125550Y212500D01*
X124800Y214750D02*Y213250D01*
Y214750D02*X125550Y215500D01*
X127050D01*
X127800Y214750D01*
X132600Y218500D02*Y212500D01*
X131850D02*X132600Y213250D01*
X130350Y212500D02*X131850D01*
X129600Y213250D02*X130350Y212500D01*
X129600Y214750D02*Y213250D01*
Y214750D02*X130350Y215500D01*
X131850D01*
X132600Y214750D01*
X123000Y178500D02*X123750Y177750D01*
X120750Y178500D02*X123000D01*
X120000Y177750D02*X120750Y178500D01*
X120000Y177750D02*Y173250D01*
X120750Y172500D01*
X123000D01*
X123750Y173250D01*
Y174750D02*Y173250D01*
X123000Y175500D02*X123750Y174750D01*
X121500Y175500D02*X123000D01*
X126300Y174750D02*Y172500D01*
Y174750D02*X127050Y175500D01*
X127800D01*
X128550Y174750D01*
Y172500D01*
X125550Y175500D02*X126300Y174750D01*
X133350Y178500D02*Y172500D01*
X132600D02*X133350Y173250D01*
X131100Y172500D02*X132600D01*
X130350Y173250D02*X131100Y172500D01*
X130350Y174750D02*Y173250D01*
Y174750D02*X131100Y175500D01*
X132600D01*
X133350Y174750D01*
X62500Y94750D02*X65500Y98500D01*
X62500Y94750D02*X66250D01*
X65500Y98500D02*Y92500D01*
X68800D02*X71800Y98500D01*
X68050D02*X71800D01*
X73600D02*X76600D01*
X73600D02*Y95500D01*
X74350Y96250D01*
X75850D01*
X76600Y95500D01*
Y93250D01*
X75850Y92500D02*X76600Y93250D01*
X74350Y92500D02*X75850D01*
X73600Y93250D02*X74350Y92500D01*
X78400Y98500D02*Y92500D01*
Y94750D02*X80650Y92500D01*
X78400Y94750D02*X79900Y96250D01*
G54D40*X91000Y32000D02*X92500Y30500D01*
X86500Y32000D02*X91000D01*
X85000Y30500D02*X86500Y32000D01*
X85000Y30500D02*Y21500D01*
X86500Y20000D01*
X91000D01*
X92500Y21500D01*
Y24500D02*Y21500D01*
X91000Y26000D02*X92500Y24500D01*
X88000Y26000D02*X91000D01*
X97600Y32000D02*Y20000D01*
X96100Y32000D02*X102100D01*
X103600Y30500D01*
Y27500D01*
X102100Y26000D02*X103600Y27500D01*
X97600Y26000D02*X102100D01*
X107200Y32000D02*X110200D01*
X108700D02*Y20000D01*
X107200D02*X110200D01*
X113800Y30500D02*Y21500D01*
Y30500D02*X115300Y32000D01*
X118300D01*
X119800Y30500D01*
Y21500D01*
X118300Y20000D02*X119800Y21500D01*
X115300Y20000D02*X118300D01*
X113800Y21500D02*X115300Y20000D01*
X130300Y24500D02*Y20000D01*
Y24500D02*X131800Y26000D01*
X134800D01*
X128800D02*X130300Y24500D01*
X139900Y20000D02*X144400D01*
X138400Y21500D02*X139900Y20000D01*
X138400Y24500D02*Y21500D01*
Y24500D02*X139900Y26000D01*
X142900D01*
X144400Y24500D01*
X138400Y23000D02*X144400D01*
Y24500D02*Y23000D01*
X148000Y26000D02*X151000Y20000D01*
X154000Y26000D02*X151000Y20000D01*
X163000Y30500D02*X164500Y32000D01*
X169000D01*
X170500Y30500D01*
Y27500D01*
X163000Y20000D02*X170500Y27500D01*
X163000Y20000D02*X170500D01*
G54D39*X28000Y153500D02*X28750Y152750D01*
X25750Y153500D02*X28000D01*
X25000Y152750D02*X25750Y153500D01*
X25000Y152750D02*Y148250D01*
X25750Y147500D01*
X28000D01*
X28750Y148250D01*
Y149750D02*Y148250D01*
X28000Y150500D02*X28750Y149750D01*
X26500Y150500D02*X28000D01*
X31300Y149750D02*Y147500D01*
Y149750D02*X32050Y150500D01*
X32800D01*
X33550Y149750D01*
Y147500D01*
X30550Y150500D02*X31300Y149750D01*
X38350Y153500D02*Y147500D01*
X37600D02*X38350Y148250D01*
X36100Y147500D02*X37600D01*
X35350Y148250D02*X36100Y147500D01*
X35350Y149750D02*Y148250D01*
Y149750D02*X36100Y150500D01*
X37600D01*
X38350Y149750D01*
X27500Y142000D02*Y137500D01*
Y142000D02*X28550Y143500D01*
X30200D01*
X31250Y142000D01*
Y137500D01*
X27500Y140500D02*X31250D01*
X33050Y142000D02*Y141850D01*
Y139750D02*Y137500D01*
X35300Y139750D02*Y137500D01*
Y139750D02*X36050Y140500D01*
X36800D01*
X37550Y139750D01*
Y137500D01*
X34550Y140500D02*X35300Y139750D01*
X77500Y123250D02*X78250Y122500D01*
X77500Y127750D02*Y123250D01*
Y127750D02*X78250Y128500D01*
X79750D01*
X80500Y127750D01*
Y123250D01*
X79750Y122500D02*X80500Y123250D01*
X78250Y122500D02*X79750D01*
X77500Y124000D02*X80500Y127000D01*
X82300Y122500D02*X83050D01*
X84850D02*X85600D01*
X88150D02*X91150Y128500D01*
X87400D02*X91150D01*
X15000Y123500D02*Y117500D01*
Y123500D02*X16400Y125500D01*
X18600D01*
X20000Y123500D01*
Y117500D01*
X15000Y121500D02*X20000D01*
X23400Y120500D02*Y117500D01*
Y120500D02*X24400Y121500D01*
X25400D01*
X26400Y120500D01*
Y117500D01*
X22400Y121500D02*X23400Y120500D01*
X31800Y121500D02*X32800Y120500D01*
X29800Y121500D02*X31800D01*
X28800Y120500D02*X29800Y121500D01*
X28800Y120500D02*Y118500D01*
X29800Y117500D01*
X32800Y121500D02*Y118500D01*
X33800Y117500D01*
X29800D02*X31800D01*
X32800Y118500D01*
X36200Y125500D02*Y118500D01*
X37200Y117500D01*
X39200Y120500D02*Y118500D01*
Y120500D02*X40200Y121500D01*
X42200D01*
X43200Y120500D01*
Y118500D01*
X42200Y117500D02*X43200Y118500D01*
X40200Y117500D02*X42200D01*
X39200Y118500D02*X40200Y117500D01*
X48600Y121500D02*X49600Y120500D01*
X46600Y121500D02*X48600D01*
X45600Y120500D02*X46600Y121500D01*
X45600Y120500D02*Y118500D01*
X46600Y117500D01*
X48600D01*
X49600Y118500D01*
X45600Y115500D02*X46600Y114500D01*
X48600D01*
X49600Y115500D01*
Y121500D02*Y115500D01*
X55600Y125500D02*X57600D01*
X56600D02*Y117500D01*
X55600D02*X57600D01*
X61000Y120500D02*Y117500D01*
Y120500D02*X62000Y121500D01*
X63000D01*
X64000Y120500D01*
Y117500D01*
X60000Y121500D02*X61000Y120500D01*
X148250Y178500D02*Y172500D01*
X150200Y178500D02*X151250Y177450D01*
Y173550D01*
X150200Y172500D02*X151250Y173550D01*
X147500Y172500D02*X150200D01*
X147500Y178500D02*X150200D01*
X153800Y172500D02*X156800Y178500D01*
X153050D02*X156800D01*
X158600Y172500D02*X159350D01*
X161150D02*X161900D01*
X163700Y173250D02*X164450Y172500D01*
X163700Y177750D02*Y173250D01*
Y177750D02*X164450Y178500D01*
X165950D01*
X166700Y177750D01*
Y173250D01*
X165950Y172500D02*X166700Y173250D01*
X164450Y172500D02*X165950D01*
X163700Y174000D02*X166700Y177000D01*
X146000Y228000D02*Y220000D01*
X148600Y228000D02*X150000Y226600D01*
Y221400D01*
X148600Y220000D02*X150000Y221400D01*
X145000Y220000D02*X148600D01*
X145000Y228000D02*X148600D01*
X152400Y226000D02*Y225800D01*
Y223000D02*Y220000D01*
X157400Y224000D02*X158400Y223000D01*
X155400Y224000D02*X157400D01*
X154400Y223000D02*X155400Y224000D01*
X154400Y223000D02*Y221000D01*
X155400Y220000D01*
X157400D01*
X158400Y221000D01*
X154400Y218000D02*X155400Y217000D01*
X157400D01*
X158400Y218000D01*
Y224000D02*Y218000D01*
X160800Y226000D02*Y225800D01*
Y223000D02*Y220000D01*
X163800Y228000D02*Y221000D01*
X164800Y220000D01*
X162800Y225000D02*X164800D01*
X169800Y224000D02*X170800Y223000D01*
X167800Y224000D02*X169800D01*
X166800Y223000D02*X167800Y224000D01*
X166800Y223000D02*Y221000D01*
X167800Y220000D01*
X170800Y224000D02*Y221000D01*
X171800Y220000D01*
X167800D02*X169800D01*
X170800Y221000D01*
X174200Y228000D02*Y221000D01*
X175200Y220000D01*
X180800Y228000D02*X182800D01*
X181800D02*Y220000D01*
X180800D02*X182800D01*
X185200Y227000D02*Y221000D01*
Y227000D02*X186200Y228000D01*
X188200D01*
X189200Y227000D01*
Y221000D01*
X188200Y220000D02*X189200Y221000D01*
X186200Y220000D02*X188200D01*
X185200Y221000D02*X186200Y220000D01*
X39000Y240000D02*Y250000D01*
X139000D01*
Y240000D01*
X39000D01*
G54D41*X125000Y155000D02*Y135000D01*
X45000Y155000D02*Y135000D01*
G54D39*X47000D02*Y131000D01*
G54D41*X45000Y135000D02*X125000D01*
G54D39*X47000Y131000D02*X51000D01*
G54D41*X45000Y155000D02*X125000D01*
G54D39*X51000Y135000D02*Y131000D01*
X95000Y135000D02*Y131000D01*
X75000Y135000D02*Y131000D01*
X75500D02*X95000D01*
X145000Y240000D02*Y250000D01*
X225000D01*
Y240000D01*
X145000D01*
X215500Y140000D02*Y170000D01*
X235500D01*
Y140000D01*
X215500D01*
G54D41*X175000Y205000D02*Y185000D01*
X115000Y205000D02*X175000D01*
X115000D02*Y185000D01*
X175000D01*
G54D39*X173000Y209000D02*Y205000D01*
X169000Y209000D02*X173000D01*
X169000D02*Y205000D01*
X60000Y220000D02*Y195000D01*
Y220000D02*X70000D01*
Y195000D01*
X60000D02*X70000D01*
X75000Y197500D02*Y172500D01*
Y197500D02*X85000D01*
Y172500D01*
X75000D02*X85000D01*
X75000Y50000D02*Y60000D01*
X155000D01*
Y50000D01*
X75000D01*
X165000D02*Y60000D01*
X225000D01*
Y50000D01*
X165000D01*
X195000Y110000D02*Y85000D01*
Y110000D02*X205000D01*
Y85000D01*
X195000D02*X205000D01*
X185000Y110000D02*Y85000D01*
Y110000D02*X195000D01*
Y85000D01*
X185000D02*X195000D01*
X175000Y110000D02*Y85000D01*
Y110000D02*X185000D01*
Y85000D01*
X175000D02*X185000D01*
X165000Y110000D02*Y85000D01*
Y110000D02*X175000D01*
Y85000D01*
X165000D02*X175000D01*
X155000Y110000D02*Y85000D01*
Y110000D02*X165000D01*
Y85000D01*
X155000D02*X165000D01*
X145000Y110000D02*Y85000D01*
Y110000D02*X155000D01*
Y85000D01*
X145000D02*X155000D01*
X135000Y110000D02*Y85000D01*
Y110000D02*X145000D01*
Y85000D01*
X135000D02*X145000D01*
X125000Y110000D02*Y85000D01*
Y110000D02*X135000D01*
Y85000D01*
X125000D02*X135000D01*
X115000Y110000D02*Y85000D01*
Y110000D02*X125000D01*
Y85000D01*
X115000D02*X125000D01*
X105000Y110000D02*Y85000D01*
Y110000D02*X115000D01*
Y85000D01*
X105000D02*X115000D01*
X95000Y110000D02*Y85000D01*
Y110000D02*X105000D01*
Y85000D01*
X95000D02*X105000D01*
X85000Y110000D02*Y85000D01*
Y110000D02*X95000D01*
Y85000D01*
X85000D02*X95000D01*
M02*
