M48
INCH
T43C0.125
T42C0.042
T41C0.070
T40C0.052
T39C0.035
%
T39
X006000Y007250
X006000Y005250
X006500Y006250
X008500Y007250
X008500Y005250
X009000Y006250
X016000Y007250
X016000Y005250
X016500Y006250
X016500Y002250
X017000Y011250
X017000Y009250
X017000Y003250
X017000Y001250
X017500Y010250
X018500Y007250
X018500Y005250
X019000Y006250
X026000Y007250
X026000Y005250
X026500Y006250
X028500Y007250
X028500Y005250
X029000Y006250
T42
X031250Y010500
X031250Y009500
X031500Y003000
X031500Y002000
X032500Y007000
X032500Y006000
X032500Y003000
X032500Y002000
X033500Y007000
X033500Y006000
X033500Y003000
X033500Y002000
X034500Y007000
X034500Y006000
X034500Y003000
X034500Y002000
X035000Y010500
X035000Y009500
X035500Y007000
X035500Y006000
X035500Y003000
X035500Y002000
X036500Y007000
X036500Y006000
X036500Y003000
X036500Y002000
X037500Y007000
X037500Y006000
X037500Y003000
X037500Y002000
X038500Y003000
X038500Y002000
T40
X002500Y010000
X002500Y002500
X012500Y010000
X012500Y002500
X022500Y010000
X022500Y002500
X047500Y010000
X047500Y002500
T41
X001250Y011250
X001250Y008750
X001250Y003750
X001250Y001250
X003750Y011250
X003750Y008750
X003750Y003750
X003750Y001250
X011250Y011250
X011250Y008750
X011250Y003750
X011250Y001250
X013750Y011250
X013750Y008750
X013750Y003750
X013750Y001250
X021250Y011250
X021250Y008750
X021250Y003750
X021250Y001250
X023750Y011250
X023750Y008750
X023750Y003750
X023750Y001250
X046250Y011250
X046250Y008750
X046250Y003750
X046250Y001250
X048750Y011250
X048750Y008750
X048750Y003750
X048750Y001250
T43
X007500Y010000
X007500Y002500
X027500Y010000
X027500Y002500
X042500Y010000
X042500Y002500
M30
