G04 start of page 7 for group -4062 idx -4062 *
G04 Title: (unknown), soldermask *
G04 Creator: pcb 20140316 *
G04 CreationDate: Wed 25 Jul 2018 01:27:56 PM GMT UTC *
G04 For: thomasc *
G04 Format: Gerber/RS-274X *
G04 PCB-Dimensions (mil): 2500.00 3000.00 *
G04 PCB-Coordinate-Origin: lower left *
%MOIN*%
%FSLAX25Y25*%
%LNBOTTOMMASK*%
%ADD38C,0.0001*%
%ADD37C,0.1350*%
%ADD36C,0.0760*%
G54D36*X134000Y245000D03*
X220000D03*
X200000D03*
X210000D03*
G54D37*X225000Y275000D03*
G54D36*X180000Y245000D03*
X190000D03*
X170000D03*
X160000D03*
X150000D03*
X84000D03*
X74000D03*
X94000D03*
X104000D03*
X44000D03*
X64000D03*
X54000D03*
X114000D03*
X124000D03*
G54D37*X25000Y275000D03*
X30000Y245000D03*
G54D36*X80000Y55000D03*
X90000D03*
G54D37*X25000Y25000D03*
Y55000D03*
G54D36*X120000D03*
X110000D03*
X100000D03*
X130000D03*
X140000D03*
X150000D03*
X170000D03*
X180000D03*
X210000D03*
X220000D03*
G54D37*X230000Y75000D03*
X225000Y25000D03*
G54D36*X200000Y55000D03*
X190000D03*
X50000Y150000D03*
G54D38*G36*
X46200Y143800D02*Y136200D01*
X53800D01*
Y143800D01*
X46200D01*
G37*
G54D36*X60000Y150000D03*
Y140000D03*
X70000Y150000D03*
Y140000D03*
X80000Y150000D03*
Y140000D03*
X90000D03*
X100000D03*
X110000D03*
X120000D03*
X90000Y150000D03*
X100000D03*
X110000D03*
X120000D03*
X230500Y165000D03*
G54D38*G36*
X216700Y168800D02*Y161200D01*
X224300D01*
Y168800D01*
X216700D01*
G37*
G54D36*X220500Y155000D03*
Y145000D03*
G54D37*X230000Y185000D03*
G54D36*X230500Y155000D03*
Y145000D03*
X170000Y190000D03*
X160000D03*
X150000D03*
X140000D03*
X130000D03*
X120000D03*
Y200000D03*
X130000D03*
X160000D03*
G54D38*G36*
X166200Y203800D02*Y196200D01*
X173800D01*
Y203800D01*
X166200D01*
G37*
G54D36*X150000Y200000D03*
X140000D03*
M02*
