G04 start of page 12 for group -3984 idx -3984 *
G04 Title: (unknown), fab *
G04 Creator: pcb 20140316 *
G04 CreationDate: Tue 28 Aug 2018 05:55:18 PM GMT UTC *
G04 For: thomasc *
G04 Format: Gerber/RS-274X *
G04 PCB-Dimensions (mil): 5000.00 1250.00 *
G04 PCB-Coordinate-Origin: lower left *
%MOIN*%
%FSLAX25Y25*%
%LNFAB*%
%ADD69C,0.0100*%
%ADD68C,0.0075*%
%ADD67C,0.0060*%
%ADD66R,0.0080X0.0080*%
G54D66*X73400Y101600D02*X76600D01*
X73400D02*Y98400D01*
X76600D01*
Y101600D02*Y98400D01*
X273400Y101600D02*X276600D01*
X273400D02*Y98400D01*
X276600D01*
Y101600D02*Y98400D01*
X73400Y26600D02*X76600D01*
X73400D02*Y23400D01*
X76600D01*
Y26600D02*Y23400D01*
X273400Y26600D02*X276600D01*
X273400D02*Y23400D01*
X276600D01*
Y26600D02*Y23400D01*
X423400Y26600D02*X426600D01*
X423400D02*Y23400D01*
X426600D01*
Y26600D02*Y23400D01*
X423400Y101600D02*X426600D01*
X423400D02*Y98400D01*
X426600D01*
Y101600D02*Y98400D01*
X13400Y137850D02*X16600D01*
X13400D02*Y134650D01*
X16600D01*
Y137850D02*Y134650D01*
G54D67*X135000Y138500D02*X136500Y135500D01*
X138000Y138500D01*
X136500Y135500D02*Y132500D01*
X139800Y135800D02*X142050D01*
X139800Y132500D02*X142800D01*
X139800Y138500D02*Y132500D01*
Y138500D02*X142800D01*
X147600D02*X148350Y137750D01*
X145350Y138500D02*X147600D01*
X144600Y137750D02*X145350Y138500D01*
X144600Y137750D02*Y136250D01*
X145350Y135500D01*
X147600D01*
X148350Y134750D01*
Y133250D01*
X147600Y132500D02*X148350Y133250D01*
X145350Y132500D02*X147600D01*
X144600Y133250D02*X145350Y132500D01*
X100250Y138500D02*X101000Y137750D01*
X98750Y138500D02*X100250D01*
X98000Y137750D02*X98750Y138500D01*
X98000Y137750D02*Y133250D01*
X98750Y132500D01*
X100250Y135800D02*X101000Y135050D01*
X98000Y135800D02*X100250D01*
X98750Y132500D02*X100250D01*
X101000Y133250D01*
Y135050D02*Y133250D01*
X45000D02*X45750Y132500D01*
X45000Y137750D02*Y133250D01*
Y137750D02*X45750Y138500D01*
X47250D01*
X48000Y137750D01*
Y133250D01*
X47250Y132500D02*X48000Y133250D01*
X45750Y132500D02*X47250D01*
X45000Y134000D02*X48000Y137000D01*
X49800Y132500D02*X50550D01*
X52350Y137300D02*X53550Y138500D01*
Y132500D01*
X52350D02*X54600D01*
X56400Y137750D02*X57150Y138500D01*
X59400D01*
X60150Y137750D01*
Y136250D01*
X56400Y132500D02*X60150Y136250D01*
X56400Y132500D02*X60150D01*
X61950Y138500D02*X64950D01*
X61950D02*Y135500D01*
X62700Y136250D01*
X64200D01*
X64950Y135500D01*
Y133250D01*
X64200Y132500D02*X64950Y133250D01*
X62700Y132500D02*X64200D01*
X61950Y133250D02*X62700Y132500D01*
X11700Y112500D02*G75*G03X13300Y112500I800J0D01*G01*
G75*G03X11700Y112500I-800J0D01*G01*
X36700D02*G75*G03X38300Y112500I800J0D01*G01*
G75*G03X36700Y112500I-800J0D01*G01*
Y87500D02*G75*G03X38300Y87500I800J0D01*G01*
G75*G03X36700Y87500I-800J0D01*G01*
X11700D02*G75*G03X13300Y87500I800J0D01*G01*
G75*G03X11700Y87500I-800J0D01*G01*
Y37500D02*G75*G03X13300Y37500I800J0D01*G01*
G75*G03X11700Y37500I-800J0D01*G01*
X36700D02*G75*G03X38300Y37500I800J0D01*G01*
G75*G03X36700Y37500I-800J0D01*G01*
Y12500D02*G75*G03X38300Y12500I800J0D01*G01*
G75*G03X36700Y12500I-800J0D01*G01*
X11700D02*G75*G03X13300Y12500I800J0D01*G01*
G75*G03X11700Y12500I-800J0D01*G01*
X111700Y37500D02*G75*G03X113300Y37500I800J0D01*G01*
G75*G03X111700Y37500I-800J0D01*G01*
X136700D02*G75*G03X138300Y37500I800J0D01*G01*
G75*G03X136700Y37500I-800J0D01*G01*
Y12500D02*G75*G03X138300Y12500I800J0D01*G01*
G75*G03X136700Y12500I-800J0D01*G01*
X111700D02*G75*G03X113300Y12500I800J0D01*G01*
G75*G03X111700Y12500I-800J0D01*G01*
Y112500D02*G75*G03X113300Y112500I800J0D01*G01*
G75*G03X111700Y112500I-800J0D01*G01*
X136700D02*G75*G03X138300Y112500I800J0D01*G01*
G75*G03X136700Y112500I-800J0D01*G01*
Y87500D02*G75*G03X138300Y87500I800J0D01*G01*
G75*G03X136700Y87500I-800J0D01*G01*
X111700D02*G75*G03X113300Y87500I800J0D01*G01*
G75*G03X111700Y87500I-800J0D01*G01*
X211700Y112500D02*G75*G03X213300Y112500I800J0D01*G01*
G75*G03X211700Y112500I-800J0D01*G01*
X236700D02*G75*G03X238300Y112500I800J0D01*G01*
G75*G03X236700Y112500I-800J0D01*G01*
Y87500D02*G75*G03X238300Y87500I800J0D01*G01*
G75*G03X236700Y87500I-800J0D01*G01*
X211700D02*G75*G03X213300Y87500I800J0D01*G01*
G75*G03X211700Y87500I-800J0D01*G01*
Y37500D02*G75*G03X213300Y37500I800J0D01*G01*
G75*G03X211700Y37500I-800J0D01*G01*
X236700D02*G75*G03X238300Y37500I800J0D01*G01*
G75*G03X236700Y37500I-800J0D01*G01*
Y12500D02*G75*G03X238300Y12500I800J0D01*G01*
G75*G03X236700Y12500I-800J0D01*G01*
X211700D02*G75*G03X213300Y12500I800J0D01*G01*
G75*G03X211700Y12500I-800J0D01*G01*
X461700Y112500D02*G75*G03X463300Y112500I800J0D01*G01*
G75*G03X461700Y112500I-800J0D01*G01*
X486700D02*G75*G03X488300Y112500I800J0D01*G01*
G75*G03X486700Y112500I-800J0D01*G01*
Y87500D02*G75*G03X488300Y87500I800J0D01*G01*
G75*G03X486700Y87500I-800J0D01*G01*
X461700D02*G75*G03X463300Y87500I800J0D01*G01*
G75*G03X461700Y87500I-800J0D01*G01*
Y37500D02*G75*G03X463300Y37500I800J0D01*G01*
G75*G03X461700Y37500I-800J0D01*G01*
X486700D02*G75*G03X488300Y37500I800J0D01*G01*
G75*G03X486700Y37500I-800J0D01*G01*
Y12500D02*G75*G03X488300Y12500I800J0D01*G01*
G75*G03X486700Y12500I-800J0D01*G01*
X461700D02*G75*G03X463300Y12500I800J0D01*G01*
G75*G03X461700Y12500I-800J0D01*G01*
X14200Y151250D02*G75*G03X15800Y151250I800J0D01*G01*
G75*G03X14200Y151250I-800J0D01*G01*
X135000Y153500D02*X136500Y150500D01*
X138000Y153500D01*
X136500Y150500D02*Y147500D01*
X139800Y150800D02*X142050D01*
X139800Y147500D02*X142800D01*
X139800Y153500D02*Y147500D01*
Y153500D02*X142800D01*
X147600D02*X148350Y152750D01*
X145350Y153500D02*X147600D01*
X144600Y152750D02*X145350Y153500D01*
X144600Y152750D02*Y151250D01*
X145350Y150500D01*
X147600D01*
X148350Y149750D01*
Y148250D01*
X147600Y147500D02*X148350Y148250D01*
X145350Y147500D02*X147600D01*
X144600Y148250D02*X145350Y147500D01*
X98000Y152750D02*X98750Y153500D01*
X100250D01*
X101000Y152750D01*
X100250Y147500D02*X101000Y148250D01*
X98750Y147500D02*X100250D01*
X98000Y148250D02*X98750Y147500D01*
Y150800D02*X100250D01*
X101000Y152750D02*Y151550D01*
Y150050D02*Y148250D01*
Y150050D02*X100250Y150800D01*
X101000Y151550D02*X100250Y150800D01*
X102800Y152750D02*X103550Y153500D01*
X105800D01*
X106550Y152750D01*
Y151250D01*
X102800Y147500D02*X106550Y151250D01*
X102800Y147500D02*X106550D01*
X45000Y148250D02*X45750Y147500D01*
X45000Y152750D02*Y148250D01*
Y152750D02*X45750Y153500D01*
X47250D01*
X48000Y152750D01*
Y148250D01*
X47250Y147500D02*X48000Y148250D01*
X45750Y147500D02*X47250D01*
X45000Y149000D02*X48000Y152000D01*
X49800Y147500D02*X50550D01*
X52350Y148250D02*X53100Y147500D01*
X52350Y152750D02*Y148250D01*
Y152750D02*X53100Y153500D01*
X54600D01*
X55350Y152750D01*
Y148250D01*
X54600Y147500D02*X55350Y148250D01*
X53100Y147500D02*X54600D01*
X52350Y149000D02*X55350Y152000D01*
X57900Y147500D02*X60900Y153500D01*
X57150D02*X60900D01*
X62700Y148250D02*X63450Y147500D01*
X62700Y152750D02*Y148250D01*
Y152750D02*X63450Y153500D01*
X64950D01*
X65700Y152750D01*
Y148250D01*
X64950Y147500D02*X65700Y148250D01*
X63450Y147500D02*X64950D01*
X62700Y149000D02*X65700Y152000D01*
X23800Y101200D02*X26200Y98800D01*
X23800D02*X26200Y101200D01*
X23800Y26200D02*X26200Y23800D01*
X23800D02*X26200Y26200D01*
X123800D02*X126200Y23800D01*
X123800D02*X126200Y26200D01*
X123800Y101200D02*X126200Y98800D01*
X123800D02*X126200Y101200D01*
X223800D02*X226200Y98800D01*
X223800D02*X226200Y101200D01*
X223800Y26200D02*X226200Y23800D01*
X223800D02*X226200Y26200D01*
X473800Y101200D02*X476200Y98800D01*
X473800D02*X476200Y101200D01*
X473800Y26200D02*X476200Y23800D01*
X473800D02*X476200Y26200D01*
X13800Y167450D02*X16200Y165050D01*
X13800D02*X16200Y167450D01*
X135000Y168500D02*X136500Y165500D01*
X138000Y168500D01*
X136500Y165500D02*Y162500D01*
X139800Y165800D02*X142050D01*
X139800Y162500D02*X142800D01*
X139800Y168500D02*Y162500D01*
Y168500D02*X142800D01*
X147600D02*X148350Y167750D01*
X145350Y168500D02*X147600D01*
X144600Y167750D02*X145350Y168500D01*
X144600Y167750D02*Y166250D01*
X145350Y165500D01*
X147600D01*
X148350Y164750D01*
Y163250D01*
X147600Y162500D02*X148350Y163250D01*
X145350Y162500D02*X147600D01*
X144600Y163250D02*X145350Y162500D01*
X98000Y163250D02*X98750Y162500D01*
X98000Y164450D02*Y163250D01*
Y164450D02*X99050Y165500D01*
X99950D01*
X101000Y164450D01*
Y163250D01*
X100250Y162500D02*X101000Y163250D01*
X98750Y162500D02*X100250D01*
X98000Y166550D02*X99050Y165500D01*
X98000Y167750D02*Y166550D01*
Y167750D02*X98750Y168500D01*
X100250D01*
X101000Y167750D01*
Y166550D01*
X99950Y165500D02*X101000Y166550D01*
X45000Y163250D02*X45750Y162500D01*
X45000Y167750D02*Y163250D01*
Y167750D02*X45750Y168500D01*
X47250D01*
X48000Y167750D01*
Y163250D01*
X47250Y162500D02*X48000Y163250D01*
X45750Y162500D02*X47250D01*
X45000Y164000D02*X48000Y167000D01*
X49800Y162500D02*X50550D01*
X52350Y163250D02*X53100Y162500D01*
X52350Y167750D02*Y163250D01*
Y167750D02*X53100Y168500D01*
X54600D01*
X55350Y167750D01*
Y163250D01*
X54600Y162500D02*X55350Y163250D01*
X53100Y162500D02*X54600D01*
X52350Y164000D02*X55350Y167000D01*
X57150Y168500D02*X60150D01*
X57150D02*Y165500D01*
X57900Y166250D01*
X59400D01*
X60150Y165500D01*
Y163250D01*
X59400Y162500D02*X60150Y163250D01*
X57900Y162500D02*X59400D01*
X57150Y163250D02*X57900Y162500D01*
X61950Y167750D02*X62700Y168500D01*
X64950D01*
X65700Y167750D01*
Y166250D01*
X61950Y162500D02*X65700Y166250D01*
X61950Y162500D02*X65700D01*
X385000Y21600D02*Y18400D01*
X383400Y20000D02*X386600D01*
X385000Y31600D02*Y28400D01*
X383400Y30000D02*X386600D01*
X375000Y21600D02*Y18400D01*
X373400Y20000D02*X376600D01*
X375000Y31600D02*Y28400D01*
X373400Y30000D02*X376600D01*
X365000Y21600D02*Y18400D01*
X363400Y20000D02*X366600D01*
X365000Y31600D02*Y28400D01*
X363400Y30000D02*X366600D01*
X355000Y21600D02*Y18400D01*
X353400Y20000D02*X356600D01*
X355000Y31600D02*Y28400D01*
X353400Y30000D02*X356600D01*
X345000Y21600D02*Y18400D01*
X343400Y20000D02*X346600D01*
X345000Y31600D02*Y28400D01*
X343400Y30000D02*X346600D01*
X335000Y21600D02*Y18400D01*
X333400Y20000D02*X336600D01*
X335000Y31600D02*Y28400D01*
X333400Y30000D02*X336600D01*
X325000Y21600D02*Y18400D01*
X323400Y20000D02*X326600D01*
X325000Y31600D02*Y28400D01*
X323400Y30000D02*X326600D01*
X315000Y21600D02*Y18400D01*
X313400Y20000D02*X316600D01*
X315000Y31600D02*Y28400D01*
X313400Y30000D02*X316600D01*
X350000Y96600D02*Y93400D01*
X348400Y95000D02*X351600D01*
X350000Y106600D02*Y103400D01*
X348400Y105000D02*X351600D01*
X312500Y96600D02*Y93400D01*
X310900Y95000D02*X314100D01*
X312500Y106600D02*Y103400D01*
X310900Y105000D02*X314100D01*
X375000Y71600D02*Y68400D01*
X373400Y70000D02*X376600D01*
X365000Y71600D02*Y68400D01*
X363400Y70000D02*X366600D01*
X355000Y71600D02*Y68400D01*
X353400Y70000D02*X356600D01*
X345000Y71600D02*Y68400D01*
X343400Y70000D02*X346600D01*
X335000Y71600D02*Y68400D01*
X333400Y70000D02*X336600D01*
X325000Y71600D02*Y68400D01*
X323400Y70000D02*X326600D01*
X325000Y61600D02*Y58400D01*
X323400Y60000D02*X326600D01*
X365000Y61600D02*Y58400D01*
X363400Y60000D02*X366600D01*
X355000Y61600D02*Y58400D01*
X353400Y60000D02*X356600D01*
X345000Y61600D02*Y58400D01*
X343400Y60000D02*X346600D01*
X335000Y61600D02*Y58400D01*
X333400Y60000D02*X336600D01*
X375000Y61600D02*Y58400D01*
X373400Y60000D02*X376600D01*
X15000Y182850D02*Y179650D01*
X13400Y181250D02*X16600D01*
X135000Y183500D02*X136500Y180500D01*
X138000Y183500D01*
X136500Y180500D02*Y177500D01*
X139800Y180800D02*X142050D01*
X139800Y177500D02*X142800D01*
X139800Y183500D02*Y177500D01*
Y183500D02*X142800D01*
X147600D02*X148350Y182750D01*
X145350Y183500D02*X147600D01*
X144600Y182750D02*X145350Y183500D01*
X144600Y182750D02*Y181250D01*
X145350Y180500D01*
X147600D01*
X148350Y179750D01*
Y178250D01*
X147600Y177500D02*X148350Y178250D01*
X145350Y177500D02*X147600D01*
X144600Y178250D02*X145350Y177500D01*
X98000Y182750D02*X98750Y183500D01*
X100250D01*
X101000Y182750D01*
X100250Y177500D02*X101000Y178250D01*
X98750Y177500D02*X100250D01*
X98000Y178250D02*X98750Y177500D01*
Y180800D02*X100250D01*
X101000Y182750D02*Y181550D01*
Y180050D02*Y178250D01*
Y180050D02*X100250Y180800D01*
X101000Y181550D02*X100250Y180800D01*
X102800Y182750D02*X103550Y183500D01*
X105800D01*
X106550Y182750D01*
Y181250D01*
X102800Y177500D02*X106550Y181250D01*
X102800Y177500D02*X106550D01*
X45000Y178250D02*X45750Y177500D01*
X45000Y182750D02*Y178250D01*
Y182750D02*X45750Y183500D01*
X47250D01*
X48000Y182750D01*
Y178250D01*
X47250Y177500D02*X48000Y178250D01*
X45750Y177500D02*X47250D01*
X45000Y179000D02*X48000Y182000D01*
X49800Y177500D02*X50550D01*
X52350Y178250D02*X53100Y177500D01*
X52350Y182750D02*Y178250D01*
Y182750D02*X53100Y183500D01*
X54600D01*
X55350Y182750D01*
Y178250D01*
X54600Y177500D02*X55350Y178250D01*
X53100Y177500D02*X54600D01*
X52350Y179000D02*X55350Y182000D01*
X57150Y179750D02*X60150Y183500D01*
X57150Y179750D02*X60900D01*
X60150Y183500D02*Y177500D01*
X62700Y182750D02*X63450Y183500D01*
X65700D01*
X66450Y182750D01*
Y181250D01*
X62700Y177500D02*X66450Y181250D01*
X62700Y177500D02*X66450D01*
X60000Y72500D02*Y70900D01*
Y72500D02*X61387Y73300D01*
X60000Y72500D02*X58613Y73300D01*
X60000Y52500D02*Y50900D01*
Y52500D02*X61387Y53300D01*
X60000Y52500D02*X58613Y53300D01*
X65000Y62500D02*Y60900D01*
Y62500D02*X66387Y63300D01*
X65000Y62500D02*X63613Y63300D01*
X85000Y72500D02*Y70900D01*
Y72500D02*X86387Y73300D01*
X85000Y72500D02*X83613Y73300D01*
X85000Y52500D02*Y50900D01*
Y52500D02*X86387Y53300D01*
X85000Y52500D02*X83613Y53300D01*
X90000Y62500D02*Y60900D01*
Y62500D02*X91387Y63300D01*
X90000Y62500D02*X88613Y63300D01*
X160000Y72500D02*Y70900D01*
Y72500D02*X161387Y73300D01*
X160000Y72500D02*X158613Y73300D01*
X160000Y52500D02*Y50900D01*
Y52500D02*X161387Y53300D01*
X160000Y52500D02*X158613Y53300D01*
X165000Y62500D02*Y60900D01*
Y62500D02*X166387Y63300D01*
X165000Y62500D02*X163613Y63300D01*
X185000Y72500D02*Y70900D01*
Y72500D02*X186387Y73300D01*
X185000Y72500D02*X183613Y73300D01*
X185000Y52500D02*Y50900D01*
Y52500D02*X186387Y53300D01*
X185000Y52500D02*X183613Y53300D01*
X190000Y62500D02*Y60900D01*
Y62500D02*X191387Y63300D01*
X190000Y62500D02*X188613Y63300D01*
X260000Y72500D02*Y70900D01*
Y72500D02*X261387Y73300D01*
X260000Y72500D02*X258613Y73300D01*
X260000Y52500D02*Y50900D01*
Y52500D02*X261387Y53300D01*
X260000Y52500D02*X258613Y53300D01*
X265000Y62500D02*Y60900D01*
Y62500D02*X266387Y63300D01*
X265000Y62500D02*X263613Y63300D01*
X285000Y72500D02*Y70900D01*
Y72500D02*X286387Y73300D01*
X285000Y72500D02*X283613Y73300D01*
X285000Y52500D02*Y50900D01*
Y52500D02*X286387Y53300D01*
X285000Y52500D02*X283613Y53300D01*
X290000Y62500D02*Y60900D01*
Y62500D02*X291387Y63300D01*
X290000Y62500D02*X288613Y63300D01*
X170000Y112500D02*Y110900D01*
Y112500D02*X171387Y113300D01*
X170000Y112500D02*X168613Y113300D01*
X170000Y92500D02*Y90900D01*
Y92500D02*X171387Y93300D01*
X170000Y92500D02*X168613Y93300D01*
X175000Y102500D02*Y100900D01*
Y102500D02*X176387Y103300D01*
X175000Y102500D02*X173613Y103300D01*
X170000Y12500D02*Y10900D01*
Y12500D02*X171387Y13300D01*
X170000Y12500D02*X168613Y13300D01*
X170000Y32500D02*Y30900D01*
Y32500D02*X171387Y33300D01*
X170000Y32500D02*X168613Y33300D01*
X165000Y22500D02*Y20900D01*
Y22500D02*X166387Y23300D01*
X165000Y22500D02*X163613Y23300D01*
X15000Y196250D02*Y194650D01*
Y196250D02*X16387Y197050D01*
X15000Y196250D02*X13613Y197050D01*
X135000Y198500D02*X136500Y195500D01*
X138000Y198500D01*
X136500Y195500D02*Y192500D01*
X139800Y195800D02*X142050D01*
X139800Y192500D02*X142800D01*
X139800Y198500D02*Y192500D01*
Y198500D02*X142800D01*
X147600D02*X148350Y197750D01*
X145350Y198500D02*X147600D01*
X144600Y197750D02*X145350Y198500D01*
X144600Y197750D02*Y196250D01*
X145350Y195500D01*
X147600D01*
X148350Y194750D01*
Y193250D01*
X147600Y192500D02*X148350Y193250D01*
X145350Y192500D02*X147600D01*
X144600Y193250D02*X145350Y192500D01*
X98000Y197750D02*X98750Y198500D01*
X101000D01*
X101750Y197750D01*
Y196250D01*
X98000Y192500D02*X101750Y196250D01*
X98000Y192500D02*X101750D01*
X103550Y194750D02*X106550Y198500D01*
X103550Y194750D02*X107300D01*
X106550Y198500D02*Y192500D01*
X45000Y193250D02*X45750Y192500D01*
X45000Y197750D02*Y193250D01*
Y197750D02*X45750Y198500D01*
X47250D01*
X48000Y197750D01*
Y193250D01*
X47250Y192500D02*X48000Y193250D01*
X45750Y192500D02*X47250D01*
X45000Y194000D02*X48000Y197000D01*
X49800Y192500D02*X50550D01*
X52350Y193250D02*X53100Y192500D01*
X52350Y197750D02*Y193250D01*
Y197750D02*X53100Y198500D01*
X54600D01*
X55350Y197750D01*
Y193250D01*
X54600Y192500D02*X55350Y193250D01*
X53100Y192500D02*X54600D01*
X52350Y194000D02*X55350Y197000D01*
X57150Y197750D02*X57900Y198500D01*
X59400D01*
X60150Y197750D01*
X59400Y192500D02*X60150Y193250D01*
X57900Y192500D02*X59400D01*
X57150Y193250D02*X57900Y192500D01*
Y195800D02*X59400D01*
X60150Y197750D02*Y196550D01*
Y195050D02*Y193250D01*
Y195050D02*X59400Y195800D01*
X60150Y196550D02*X59400Y195800D01*
X61950Y198500D02*X64950D01*
X61950D02*Y195500D01*
X62700Y196250D01*
X64200D01*
X64950Y195500D01*
Y193250D01*
X64200Y192500D02*X64950Y193250D01*
X62700Y192500D02*X64200D01*
X61950Y193250D02*X62700Y192500D01*
X3000Y213500D02*X3750Y212750D01*
X750Y213500D02*X3000D01*
X0Y212750D02*X750Y213500D01*
X0Y212750D02*Y211250D01*
X750Y210500D01*
X3000D01*
X3750Y209750D01*
Y208250D01*
X3000Y207500D02*X3750Y208250D01*
X750Y207500D02*X3000D01*
X0Y208250D02*X750Y207500D01*
X5550Y210500D02*Y208250D01*
X6300Y207500D01*
X8550Y210500D02*Y206000D01*
X7800Y205250D02*X8550Y206000D01*
X6300Y205250D02*X7800D01*
X5550Y206000D02*X6300Y205250D01*
Y207500D02*X7800D01*
X8550Y208250D01*
X11100Y209750D02*Y207500D01*
Y209750D02*X11850Y210500D01*
X12600D01*
X13350Y209750D01*
Y207500D01*
Y209750D02*X14100Y210500D01*
X14850D01*
X15600Y209750D01*
Y207500D01*
X10350Y210500D02*X11100Y209750D01*
X17400Y213500D02*Y207500D01*
Y208250D02*X18150Y207500D01*
X19650D01*
X20400Y208250D01*
Y209750D02*Y208250D01*
X19650Y210500D02*X20400Y209750D01*
X18150Y210500D02*X19650D01*
X17400Y209750D02*X18150Y210500D01*
X22200Y209750D02*Y208250D01*
Y209750D02*X22950Y210500D01*
X24450D01*
X25200Y209750D01*
Y208250D01*
X24450Y207500D02*X25200Y208250D01*
X22950Y207500D02*X24450D01*
X22200Y208250D02*X22950Y207500D01*
X27000Y213500D02*Y208250D01*
X27750Y207500D01*
X0Y204250D02*X29250D01*
X41750Y213500D02*Y207500D01*
X43700Y213500D02*X44750Y212450D01*
Y208550D01*
X43700Y207500D02*X44750Y208550D01*
X41000Y207500D02*X43700D01*
X41000Y213500D02*X43700D01*
G54D68*X46550Y212000D02*Y211850D01*
G54D67*Y209750D02*Y207500D01*
X50300Y210500D02*X51050Y209750D01*
X48800Y210500D02*X50300D01*
X48050Y209750D02*X48800Y210500D01*
X48050Y209750D02*Y208250D01*
X48800Y207500D01*
X51050Y210500D02*Y208250D01*
X51800Y207500D01*
X48800D02*X50300D01*
X51050Y208250D01*
X54350Y209750D02*Y207500D01*
Y209750D02*X55100Y210500D01*
X55850D01*
X56600Y209750D01*
Y207500D01*
Y209750D02*X57350Y210500D01*
X58100D01*
X58850Y209750D01*
Y207500D01*
X53600Y210500D02*X54350Y209750D01*
X60650Y207500D02*X61400D01*
X65900Y208250D02*X66650Y207500D01*
X65900Y212750D02*X66650Y213500D01*
X65900Y212750D02*Y208250D01*
X68450Y213500D02*X69950D01*
X69200D02*Y207500D01*
X68450D02*X69950D01*
X72500Y209750D02*Y207500D01*
Y209750D02*X73250Y210500D01*
X74000D01*
X74750Y209750D01*
Y207500D01*
X71750Y210500D02*X72500Y209750D01*
X77300Y210500D02*X79550D01*
X76550Y209750D02*X77300Y210500D01*
X76550Y209750D02*Y208250D01*
X77300Y207500D01*
X79550D01*
X81350Y213500D02*Y207500D01*
Y209750D02*X82100Y210500D01*
X83600D01*
X84350Y209750D01*
Y207500D01*
X86150Y213500D02*X86900Y212750D01*
Y208250D01*
X86150Y207500D02*X86900Y208250D01*
X41000Y204250D02*X88700D01*
X96050Y207500D02*X98000D01*
X95000Y208550D02*X96050Y207500D01*
X95000Y212450D02*Y208550D01*
Y212450D02*X96050Y213500D01*
X98000D01*
X99800Y209750D02*Y208250D01*
Y209750D02*X100550Y210500D01*
X102050D01*
X102800Y209750D01*
Y208250D01*
X102050Y207500D02*X102800Y208250D01*
X100550Y207500D02*X102050D01*
X99800Y208250D02*X100550Y207500D01*
X104600Y210500D02*Y208250D01*
X105350Y207500D01*
X106850D01*
X107600Y208250D01*
Y210500D02*Y208250D01*
X110150Y209750D02*Y207500D01*
Y209750D02*X110900Y210500D01*
X111650D01*
X112400Y209750D01*
Y207500D01*
X109400Y210500D02*X110150Y209750D01*
X114950Y213500D02*Y208250D01*
X115700Y207500D01*
X114200Y211250D02*X115700D01*
X95000Y204250D02*X117200D01*
X130750Y213500D02*Y207500D01*
X130000Y213500D02*X133000D01*
X133750Y212750D01*
Y211250D01*
X133000Y210500D02*X133750Y211250D01*
X130750Y210500D02*X133000D01*
X135550Y213500D02*Y208250D01*
X136300Y207500D01*
X140050Y210500D02*X140800Y209750D01*
X138550Y210500D02*X140050D01*
X137800Y209750D02*X138550Y210500D01*
X137800Y209750D02*Y208250D01*
X138550Y207500D01*
X140800Y210500D02*Y208250D01*
X141550Y207500D01*
X138550D02*X140050D01*
X140800Y208250D01*
X144100Y213500D02*Y208250D01*
X144850Y207500D01*
X143350Y211250D02*X144850D01*
X147100Y207500D02*X149350D01*
X146350Y208250D02*X147100Y207500D01*
X146350Y209750D02*Y208250D01*
Y209750D02*X147100Y210500D01*
X148600D01*
X149350Y209750D01*
X146350Y209000D02*X149350D01*
Y209750D02*Y209000D01*
X154150Y213500D02*Y207500D01*
X153400D02*X154150Y208250D01*
X151900Y207500D02*X153400D01*
X151150Y208250D02*X151900Y207500D01*
X151150Y209750D02*Y208250D01*
Y209750D02*X151900Y210500D01*
X153400D01*
X154150Y209750D01*
X157450Y210500D02*Y209750D01*
Y208250D02*Y207500D01*
X155950Y212750D02*Y212000D01*
Y212750D02*X156700Y213500D01*
X158200D01*
X158950Y212750D01*
Y212000D01*
X157450Y210500D02*X158950Y212000D01*
X130000Y204250D02*X160750D01*
X0Y228500D02*X3000D01*
X1500D02*Y222500D01*
X4800Y228500D02*Y222500D01*
Y224750D02*X5550Y225500D01*
X7050D01*
X7800Y224750D01*
Y222500D01*
X10350D02*X12600D01*
X9600Y223250D02*X10350Y222500D01*
X9600Y224750D02*Y223250D01*
Y224750D02*X10350Y225500D01*
X11850D01*
X12600Y224750D01*
X9600Y224000D02*X12600D01*
Y224750D02*Y224000D01*
X15150Y224750D02*Y222500D01*
Y224750D02*X15900Y225500D01*
X17400D01*
X14400D02*X15150Y224750D01*
X19950Y222500D02*X22200D01*
X19200Y223250D02*X19950Y222500D01*
X19200Y224750D02*Y223250D01*
Y224750D02*X19950Y225500D01*
X21450D01*
X22200Y224750D01*
X19200Y224000D02*X22200D01*
Y224750D02*Y224000D01*
X28950Y225500D02*X29700Y224750D01*
X27450Y225500D02*X28950D01*
X26700Y224750D02*X27450Y225500D01*
X26700Y224750D02*Y223250D01*
X27450Y222500D01*
X29700Y225500D02*Y223250D01*
X30450Y222500D01*
X27450D02*X28950D01*
X29700Y223250D01*
X33000Y224750D02*Y222500D01*
Y224750D02*X33750Y225500D01*
X35250D01*
X32250D02*X33000Y224750D01*
X37800Y222500D02*X40050D01*
X37050Y223250D02*X37800Y222500D01*
X37050Y224750D02*Y223250D01*
Y224750D02*X37800Y225500D01*
X39300D01*
X40050Y224750D01*
X37050Y224000D02*X40050D01*
Y224750D02*Y224000D01*
X44550Y228500D02*X47550D01*
X44550D02*Y225500D01*
X45300Y226250D01*
X46800D01*
X47550Y225500D01*
Y223250D01*
X46800Y222500D02*X47550Y223250D01*
X45300Y222500D02*X46800D01*
X44550Y223250D02*X45300Y222500D01*
X55050Y228500D02*Y222500D01*
X54300D02*X55050Y223250D01*
X52800Y222500D02*X54300D01*
X52050Y223250D02*X52800Y222500D01*
X52050Y224750D02*Y223250D01*
Y224750D02*X52800Y225500D01*
X54300D01*
X55050Y224750D01*
G54D68*X56850Y227000D02*Y226850D01*
G54D67*Y224750D02*Y222500D01*
X59100Y227750D02*Y222500D01*
Y227750D02*X59850Y228500D01*
X60600D01*
X58350Y225500D02*X59850D01*
X62850Y227750D02*Y222500D01*
Y227750D02*X63600Y228500D01*
X64350D01*
X62100Y225500D02*X63600D01*
X66600Y222500D02*X68850D01*
X65850Y223250D02*X66600Y222500D01*
X65850Y224750D02*Y223250D01*
Y224750D02*X66600Y225500D01*
X68100D01*
X68850Y224750D01*
X65850Y224000D02*X68850D01*
Y224750D02*Y224000D01*
X71400Y224750D02*Y222500D01*
Y224750D02*X72150Y225500D01*
X73650D01*
X70650D02*X71400Y224750D01*
X76200Y222500D02*X78450D01*
X75450Y223250D02*X76200Y222500D01*
X75450Y224750D02*Y223250D01*
Y224750D02*X76200Y225500D01*
X77700D01*
X78450Y224750D01*
X75450Y224000D02*X78450D01*
Y224750D02*Y224000D01*
X81000Y224750D02*Y222500D01*
Y224750D02*X81750Y225500D01*
X82500D01*
X83250Y224750D01*
Y222500D01*
X80250Y225500D02*X81000Y224750D01*
X85800Y228500D02*Y223250D01*
X86550Y222500D01*
X85050Y226250D02*X86550D01*
X93750Y228500D02*Y222500D01*
X93000D02*X93750Y223250D01*
X91500Y222500D02*X93000D01*
X90750Y223250D02*X91500Y222500D01*
X90750Y224750D02*Y223250D01*
Y224750D02*X91500Y225500D01*
X93000D01*
X93750Y224750D01*
X96300D02*Y222500D01*
Y224750D02*X97050Y225500D01*
X98550D01*
X95550D02*X96300Y224750D01*
G54D68*X100350Y227000D02*Y226850D01*
G54D67*Y224750D02*Y222500D01*
X101850Y228500D02*Y223250D01*
X102600Y222500D01*
X104100Y228500D02*Y223250D01*
X104850Y222500D01*
X109800D02*X112050D01*
X112800Y223250D01*
X112050Y224000D02*X112800Y223250D01*
X109800Y224000D02*X112050D01*
X109050Y224750D02*X109800Y224000D01*
X109050Y224750D02*X109800Y225500D01*
X112050D01*
X112800Y224750D01*
X109050Y223250D02*X109800Y222500D01*
G54D68*X114600Y227000D02*Y226850D01*
G54D67*Y224750D02*Y222500D01*
X116100Y225500D02*X119100D01*
X116100Y222500D02*X119100Y225500D01*
X116100Y222500D02*X119100D01*
X121650D02*X123900D01*
X120900Y223250D02*X121650Y222500D01*
X120900Y224750D02*Y223250D01*
Y224750D02*X121650Y225500D01*
X123150D01*
X123900Y224750D01*
X120900Y224000D02*X123900D01*
Y224750D02*Y224000D01*
X126450Y222500D02*X128700D01*
X129450Y223250D01*
X128700Y224000D02*X129450Y223250D01*
X126450Y224000D02*X128700D01*
X125700Y224750D02*X126450Y224000D01*
X125700Y224750D02*X126450Y225500D01*
X128700D01*
X129450Y224750D01*
X125700Y223250D02*X126450Y222500D01*
X133950Y225500D02*Y223250D01*
X134700Y222500D01*
X136200D01*
X136950Y223250D01*
Y225500D02*Y223250D01*
X139500Y222500D02*X141750D01*
X142500Y223250D01*
X141750Y224000D02*X142500Y223250D01*
X139500Y224000D02*X141750D01*
X138750Y224750D02*X139500Y224000D01*
X138750Y224750D02*X139500Y225500D01*
X141750D01*
X142500Y224750D01*
X138750Y223250D02*X139500Y222500D01*
X145050D02*X147300D01*
X144300Y223250D02*X145050Y222500D01*
X144300Y224750D02*Y223250D01*
Y224750D02*X145050Y225500D01*
X146550D01*
X147300Y224750D01*
X144300Y224000D02*X147300D01*
Y224750D02*Y224000D01*
X152100Y228500D02*Y222500D01*
X151350D02*X152100Y223250D01*
X149850Y222500D02*X151350D01*
X149100Y223250D02*X149850Y222500D01*
X149100Y224750D02*Y223250D01*
Y224750D02*X149850Y225500D01*
X151350D01*
X152100Y224750D01*
G54D68*X156600Y227000D02*Y226850D01*
G54D67*Y224750D02*Y222500D01*
X158850Y224750D02*Y222500D01*
Y224750D02*X159600Y225500D01*
X160350D01*
X161100Y224750D01*
Y222500D01*
X158100Y225500D02*X158850Y224750D01*
X166350Y228500D02*Y223250D01*
X167100Y222500D01*
X165600Y226250D02*X167100D01*
X168600Y228500D02*Y222500D01*
Y224750D02*X169350Y225500D01*
X170850D01*
X171600Y224750D01*
Y222500D01*
G54D68*X173400Y227000D02*Y226850D01*
G54D67*Y224750D02*Y222500D01*
X175650D02*X177900D01*
X178650Y223250D01*
X177900Y224000D02*X178650Y223250D01*
X175650Y224000D02*X177900D01*
X174900Y224750D02*X175650Y224000D01*
X174900Y224750D02*X175650Y225500D01*
X177900D01*
X178650Y224750D01*
X174900Y223250D02*X175650Y222500D01*
X183150Y228500D02*Y223250D01*
X183900Y222500D01*
X187650Y225500D02*X188400Y224750D01*
X186150Y225500D02*X187650D01*
X185400Y224750D02*X186150Y225500D01*
X185400Y224750D02*Y223250D01*
X186150Y222500D01*
X188400Y225500D02*Y223250D01*
X189150Y222500D01*
X186150D02*X187650D01*
X188400Y223250D01*
X190950Y225500D02*Y223250D01*
X191700Y222500D01*
X193950Y225500D02*Y221000D01*
X193200Y220250D02*X193950Y221000D01*
X191700Y220250D02*X193200D01*
X190950Y221000D02*X191700Y220250D01*
Y222500D02*X193200D01*
X193950Y223250D01*
X195750Y224750D02*Y223250D01*
Y224750D02*X196500Y225500D01*
X198000D01*
X198750Y224750D01*
Y223250D01*
X198000Y222500D02*X198750Y223250D01*
X196500Y222500D02*X198000D01*
X195750Y223250D02*X196500Y222500D01*
X200550Y225500D02*Y223250D01*
X201300Y222500D01*
X202800D01*
X203550Y223250D01*
Y225500D02*Y223250D01*
X206100Y228500D02*Y223250D01*
X206850Y222500D01*
X205350Y226250D02*X206850D01*
X208350Y221000D02*X209850Y222500D01*
X214350Y227300D02*X215550Y228500D01*
Y222500D01*
X214350D02*X216600D01*
X218400Y223250D02*X219150Y222500D01*
X218400Y227750D02*Y223250D01*
Y227750D02*X219150Y228500D01*
X220650D01*
X221400Y227750D01*
Y223250D01*
X220650Y222500D02*X221400Y223250D01*
X219150Y222500D02*X220650D01*
X218400Y224000D02*X221400Y227000D01*
X223200Y227750D02*X223950Y228500D01*
X226200D01*
X226950Y227750D01*
Y226250D01*
X223200Y222500D02*X226950Y226250D01*
X223200Y222500D02*X226950D01*
X231450Y228500D02*Y222500D01*
Y224750D02*X232200Y225500D01*
X233700D01*
X234450Y224750D01*
Y222500D01*
X236250Y224750D02*Y223250D01*
Y224750D02*X237000Y225500D01*
X238500D01*
X239250Y224750D01*
Y223250D01*
X238500Y222500D02*X239250Y223250D01*
X237000Y222500D02*X238500D01*
X236250Y223250D02*X237000Y222500D01*
X241050Y228500D02*Y223250D01*
X241800Y222500D01*
X244050D02*X246300D01*
X243300Y223250D02*X244050Y222500D01*
X243300Y224750D02*Y223250D01*
Y224750D02*X244050Y225500D01*
X245550D01*
X246300Y224750D01*
X243300Y224000D02*X246300D01*
Y224750D02*Y224000D01*
X248850Y222500D02*X251100D01*
X251850Y223250D01*
X251100Y224000D02*X251850Y223250D01*
X248850Y224000D02*X251100D01*
X248100Y224750D02*X248850Y224000D01*
X248100Y224750D02*X248850Y225500D01*
X251100D01*
X251850Y224750D01*
X248100Y223250D02*X248850Y222500D01*
X257100Y228500D02*Y223250D01*
X257850Y222500D01*
X256350Y226250D02*X257850D01*
X259350Y224750D02*Y223250D01*
Y224750D02*X260100Y225500D01*
X261600D01*
X262350Y224750D01*
Y223250D01*
X261600Y222500D02*X262350Y223250D01*
X260100Y222500D02*X261600D01*
X259350Y223250D02*X260100Y222500D01*
X264900Y228500D02*Y223250D01*
X265650Y222500D01*
X264150Y226250D02*X265650D01*
X269400Y225500D02*X270150Y224750D01*
X267900Y225500D02*X269400D01*
X267150Y224750D02*X267900Y225500D01*
X267150Y224750D02*Y223250D01*
X267900Y222500D01*
X270150Y225500D02*Y223250D01*
X270900Y222500D01*
X267900D02*X269400D01*
X270150Y223250D01*
X272700Y228500D02*Y223250D01*
X273450Y222500D01*
G54D69*X0Y125000D02*Y0D01*
X500000D01*
Y125000D01*
X0D01*
G54D67*X163675Y-9500D02*X166675D01*
X167425Y-8750D01*
Y-6950D02*Y-8750D01*
X166675Y-6200D02*X167425Y-6950D01*
X164425Y-6200D02*X166675D01*
X164425Y-3500D02*Y-9500D01*
X163675Y-3500D02*X166675D01*
X167425Y-4250D01*
Y-5450D01*
X166675Y-6200D02*X167425Y-5450D01*
X169225Y-7250D02*Y-8750D01*
Y-7250D02*X169975Y-6500D01*
X171475D01*
X172225Y-7250D01*
Y-8750D01*
X171475Y-9500D02*X172225Y-8750D01*
X169975Y-9500D02*X171475D01*
X169225Y-8750D02*X169975Y-9500D01*
X176275Y-6500D02*X177025Y-7250D01*
X174775Y-6500D02*X176275D01*
X174025Y-7250D02*X174775Y-6500D01*
X174025Y-7250D02*Y-8750D01*
X174775Y-9500D01*
X177025Y-6500D02*Y-8750D01*
X177775Y-9500D01*
X174775D02*X176275D01*
X177025Y-8750D01*
X180325Y-7250D02*Y-9500D01*
Y-7250D02*X181075Y-6500D01*
X182575D01*
X179575D02*X180325Y-7250D01*
X187375Y-3500D02*Y-9500D01*
X186625D02*X187375Y-8750D01*
X185125Y-9500D02*X186625D01*
X184375Y-8750D02*X185125Y-9500D01*
X184375Y-7250D02*Y-8750D01*
Y-7250D02*X185125Y-6500D01*
X186625D01*
X187375Y-7250D01*
X191875D02*Y-8750D01*
Y-7250D02*X192625Y-6500D01*
X194125D01*
X194875Y-7250D01*
Y-8750D01*
X194125Y-9500D02*X194875Y-8750D01*
X192625Y-9500D02*X194125D01*
X191875Y-8750D02*X192625Y-9500D01*
X196675Y-6500D02*Y-8750D01*
X197425Y-9500D01*
X198925D01*
X199675Y-8750D01*
Y-6500D02*Y-8750D01*
X202225Y-3500D02*Y-8750D01*
X202975Y-9500D01*
X201475Y-5750D02*X202975D01*
X204475Y-3500D02*Y-8750D01*
X205225Y-9500D01*
G54D68*X206725Y-5000D02*Y-5150D01*
G54D67*Y-7250D02*Y-9500D01*
X208975Y-7250D02*Y-9500D01*
Y-7250D02*X209725Y-6500D01*
X210475D01*
X211225Y-7250D01*
Y-9500D01*
X208225Y-6500D02*X208975Y-7250D01*
X213775Y-9500D02*X216025D01*
X213025Y-8750D02*X213775Y-9500D01*
X213025Y-7250D02*Y-8750D01*
Y-7250D02*X213775Y-6500D01*
X215275D01*
X216025Y-7250D01*
X213025Y-8000D02*X216025D01*
Y-7250D02*Y-8000D01*
G54D68*X220525Y-5000D02*Y-5150D01*
G54D67*Y-7250D02*Y-9500D01*
X222775D02*X225025D01*
X225775Y-8750D01*
X225025Y-8000D02*X225775Y-8750D01*
X222775Y-8000D02*X225025D01*
X222025Y-7250D02*X222775Y-8000D01*
X222025Y-7250D02*X222775Y-6500D01*
X225025D01*
X225775Y-7250D01*
X222025Y-8750D02*X222775Y-9500D01*
X231025Y-3500D02*Y-8750D01*
X231775Y-9500D01*
X230275Y-5750D02*X231775D01*
X233275Y-3500D02*Y-9500D01*
Y-7250D02*X234025Y-6500D01*
X235525D01*
X236275Y-7250D01*
Y-9500D01*
X238825D02*X241075D01*
X238075Y-8750D02*X238825Y-9500D01*
X238075Y-7250D02*Y-8750D01*
Y-7250D02*X238825Y-6500D01*
X240325D01*
X241075Y-7250D01*
X238075Y-8000D02*X241075D01*
Y-7250D02*Y-8000D01*
X246325Y-6500D02*X248575D01*
X245575Y-7250D02*X246325Y-6500D01*
X245575Y-7250D02*Y-8750D01*
X246325Y-9500D01*
X248575D01*
X251125D02*X253375D01*
X250375Y-8750D02*X251125Y-9500D01*
X250375Y-7250D02*Y-8750D01*
Y-7250D02*X251125Y-6500D01*
X252625D01*
X253375Y-7250D01*
X250375Y-8000D02*X253375D01*
Y-7250D02*Y-8000D01*
X255925Y-7250D02*Y-9500D01*
Y-7250D02*X256675Y-6500D01*
X257425D01*
X258175Y-7250D01*
Y-9500D01*
X255175Y-6500D02*X255925Y-7250D01*
X260725Y-3500D02*Y-8750D01*
X261475Y-9500D01*
X259975Y-5750D02*X261475D01*
X263725Y-9500D02*X265975D01*
X262975Y-8750D02*X263725Y-9500D01*
X262975Y-7250D02*Y-8750D01*
Y-7250D02*X263725Y-6500D01*
X265225D01*
X265975Y-7250D01*
X262975Y-8000D02*X265975D01*
Y-7250D02*Y-8000D01*
X268525Y-7250D02*Y-9500D01*
Y-7250D02*X269275Y-6500D01*
X270775D01*
X267775D02*X268525Y-7250D01*
X272575Y-3500D02*Y-8750D01*
X273325Y-9500D01*
G54D68*X274825Y-5000D02*Y-5150D01*
G54D67*Y-7250D02*Y-9500D01*
X277075Y-7250D02*Y-9500D01*
Y-7250D02*X277825Y-6500D01*
X278575D01*
X279325Y-7250D01*
Y-9500D01*
X276325Y-6500D02*X277075Y-7250D01*
X281875Y-9500D02*X284125D01*
X281125Y-8750D02*X281875Y-9500D01*
X281125Y-7250D02*Y-8750D01*
Y-7250D02*X281875Y-6500D01*
X283375D01*
X284125Y-7250D01*
X281125Y-8000D02*X284125D01*
Y-7250D02*Y-8000D01*
X288625Y-7250D02*Y-8750D01*
Y-7250D02*X289375Y-6500D01*
X290875D01*
X291625Y-7250D01*
Y-8750D01*
X290875Y-9500D02*X291625Y-8750D01*
X289375Y-9500D02*X290875D01*
X288625Y-8750D02*X289375Y-9500D01*
X294175Y-4250D02*Y-9500D01*
Y-4250D02*X294925Y-3500D01*
X295675D01*
X293425Y-6500D02*X294925D01*
X300625Y-3500D02*Y-8750D01*
X301375Y-9500D01*
X299875Y-5750D02*X301375D01*
X302875Y-3500D02*Y-9500D01*
Y-7250D02*X303625Y-6500D01*
X305125D01*
X305875Y-7250D01*
Y-9500D01*
G54D68*X307675Y-5000D02*Y-5150D01*
G54D67*Y-7250D02*Y-9500D01*
X309925D02*X312175D01*
X312925Y-8750D01*
X312175Y-8000D02*X312925Y-8750D01*
X309925Y-8000D02*X312175D01*
X309175Y-7250D02*X309925Y-8000D01*
X309175Y-7250D02*X309925Y-6500D01*
X312175D01*
X312925Y-7250D01*
X309175Y-8750D02*X309925Y-9500D01*
X318175Y-7250D02*Y-11750D01*
X317425Y-6500D02*X318175Y-7250D01*
X318925Y-6500D01*
X320425D01*
X321175Y-7250D01*
Y-8750D01*
X320425Y-9500D02*X321175Y-8750D01*
X318925Y-9500D02*X320425D01*
X318175Y-8750D02*X318925Y-9500D01*
X325225Y-6500D02*X325975Y-7250D01*
X323725Y-6500D02*X325225D01*
X322975Y-7250D02*X323725Y-6500D01*
X322975Y-7250D02*Y-8750D01*
X323725Y-9500D01*
X325975Y-6500D02*Y-8750D01*
X326725Y-9500D01*
X323725D02*X325225D01*
X325975Y-8750D01*
X329275Y-3500D02*Y-8750D01*
X330025Y-9500D01*
X328525Y-5750D02*X330025D01*
X331525Y-3500D02*Y-9500D01*
Y-7250D02*X332275Y-6500D01*
X333775D01*
X334525Y-7250D01*
Y-9500D01*
X200750Y153500D02*Y147500D01*
X202700Y153500D02*X203750Y152450D01*
Y148550D01*
X202700Y147500D02*X203750Y148550D01*
X200000Y147500D02*X202700D01*
X200000Y153500D02*X202700D01*
X207800Y150500D02*X208550Y149750D01*
X206300Y150500D02*X207800D01*
X205550Y149750D02*X206300Y150500D01*
X205550Y149750D02*Y148250D01*
X206300Y147500D01*
X208550Y150500D02*Y148250D01*
X209300Y147500D01*
X206300D02*X207800D01*
X208550Y148250D01*
X211850Y153500D02*Y148250D01*
X212600Y147500D01*
X211100Y151250D02*X212600D01*
X214850Y147500D02*X217100D01*
X214100Y148250D02*X214850Y147500D01*
X214100Y149750D02*Y148250D01*
Y149750D02*X214850Y150500D01*
X216350D01*
X217100Y149750D01*
X214100Y149000D02*X217100D01*
Y149750D02*Y149000D01*
X218900Y151250D02*X219650D01*
X218900Y149750D02*X219650D01*
X224150Y153500D02*X227150D01*
X225650D02*Y147500D01*
X228950Y150500D02*Y148250D01*
X229700Y147500D01*
X231200D01*
X231950Y148250D01*
Y150500D02*Y148250D01*
X234500Y147500D02*X236750D01*
X233750Y148250D02*X234500Y147500D01*
X233750Y149750D02*Y148250D01*
Y149750D02*X234500Y150500D01*
X236000D01*
X236750Y149750D01*
X233750Y149000D02*X236750D01*
Y149750D02*Y149000D01*
X241250Y152750D02*X242000Y153500D01*
X244250D01*
X245000Y152750D01*
Y151250D01*
X241250Y147500D02*X245000Y151250D01*
X241250Y147500D02*X245000D01*
X246800Y148250D02*X247550Y147500D01*
X246800Y149450D02*Y148250D01*
Y149450D02*X247850Y150500D01*
X248750D01*
X249800Y149450D01*
Y148250D01*
X249050Y147500D02*X249800Y148250D01*
X247550Y147500D02*X249050D01*
X246800Y151550D02*X247850Y150500D01*
X246800Y152750D02*Y151550D01*
Y152750D02*X247550Y153500D01*
X249050D01*
X249800Y152750D01*
Y151550D01*
X248750Y150500D02*X249800Y151550D01*
X254300Y152000D02*Y147500D01*
Y152000D02*X255350Y153500D01*
X257000D01*
X258050Y152000D01*
Y147500D01*
X254300Y150500D02*X258050D01*
X259850D02*Y148250D01*
X260600Y147500D01*
X262100D01*
X262850Y148250D01*
Y150500D02*Y148250D01*
X266900Y150500D02*X267650Y149750D01*
X265400Y150500D02*X266900D01*
X264650Y149750D02*X265400Y150500D01*
X264650Y149750D02*Y148250D01*
X265400Y147500D01*
X266900D01*
X267650Y148250D01*
X264650Y146000D02*X265400Y145250D01*
X266900D01*
X267650Y146000D01*
Y150500D02*Y146000D01*
X272150Y152750D02*X272900Y153500D01*
X275150D01*
X275900Y152750D01*
Y151250D01*
X272150Y147500D02*X275900Y151250D01*
X272150Y147500D02*X275900D01*
X277700Y148250D02*X278450Y147500D01*
X277700Y152750D02*Y148250D01*
Y152750D02*X278450Y153500D01*
X279950D01*
X280700Y152750D01*
Y148250D01*
X279950Y147500D02*X280700Y148250D01*
X278450Y147500D02*X279950D01*
X277700Y149000D02*X280700Y152000D01*
X282500Y152300D02*X283700Y153500D01*
Y147500D01*
X282500D02*X284750D01*
X286550Y148250D02*X287300Y147500D01*
X286550Y149450D02*Y148250D01*
Y149450D02*X287600Y150500D01*
X288500D01*
X289550Y149450D01*
Y148250D01*
X288800Y147500D02*X289550Y148250D01*
X287300Y147500D02*X288800D01*
X286550Y151550D02*X287600Y150500D01*
X286550Y152750D02*Y151550D01*
Y152750D02*X287300Y153500D01*
X288800D01*
X289550Y152750D01*
Y151550D01*
X288500Y150500D02*X289550Y151550D01*
X294050Y148250D02*X294800Y147500D01*
X294050Y152750D02*Y148250D01*
Y152750D02*X294800Y153500D01*
X296300D01*
X297050Y152750D01*
Y148250D01*
X296300Y147500D02*X297050Y148250D01*
X294800Y147500D02*X296300D01*
X294050Y149000D02*X297050Y152000D01*
X298850Y153500D02*X301850D01*
X298850D02*Y150500D01*
X299600Y151250D01*
X301100D01*
X301850Y150500D01*
Y148250D01*
X301100Y147500D02*X301850Y148250D01*
X299600Y147500D02*X301100D01*
X298850Y148250D02*X299600Y147500D01*
X303650Y151250D02*X304400D01*
X303650Y149750D02*X304400D01*
X306200Y153500D02*X309200D01*
X306200D02*Y150500D01*
X306950Y151250D01*
X308450D01*
X309200Y150500D01*
Y148250D01*
X308450Y147500D02*X309200Y148250D01*
X306950Y147500D02*X308450D01*
X306200Y148250D02*X306950Y147500D01*
X311000Y153500D02*X314000D01*
X311000D02*Y150500D01*
X311750Y151250D01*
X313250D01*
X314000Y150500D01*
Y148250D01*
X313250Y147500D02*X314000Y148250D01*
X311750Y147500D02*X313250D01*
X311000Y148250D02*X311750Y147500D01*
X315800Y151250D02*X316550D01*
X315800Y149750D02*X316550D01*
X318350Y152300D02*X319550Y153500D01*
Y147500D01*
X318350D02*X320600D01*
X322400Y148250D02*X323150Y147500D01*
X322400Y149450D02*Y148250D01*
Y149450D02*X323450Y150500D01*
X324350D01*
X325400Y149450D01*
Y148250D01*
X324650Y147500D02*X325400Y148250D01*
X323150Y147500D02*X324650D01*
X322400Y151550D02*X323450Y150500D01*
X322400Y152750D02*Y151550D01*
Y152750D02*X323150Y153500D01*
X324650D01*
X325400Y152750D01*
Y151550D01*
X324350Y150500D02*X325400Y151550D01*
X330650Y153500D02*Y147500D01*
X329900Y153500D02*X332900D01*
X333650Y152750D01*
Y151250D01*
X332900Y150500D02*X333650Y151250D01*
X330650Y150500D02*X332900D01*
X335450Y153500D02*Y147500D01*
Y153500D02*X337700Y150500D01*
X339950Y153500D01*
Y147500D01*
X347450Y153500D02*X348200Y152750D01*
X345200Y153500D02*X347450D01*
X344450Y152750D02*X345200Y153500D01*
X344450Y152750D02*Y148250D01*
X345200Y147500D01*
X347450D01*
X348200Y148250D01*
Y149750D02*Y148250D01*
X347450Y150500D02*X348200Y149750D01*
X345950Y150500D02*X347450D01*
X350000Y153500D02*Y147500D01*
Y153500D02*X352250Y150500D01*
X354500Y153500D01*
Y147500D01*
X356300Y153500D02*X359300D01*
X357800D02*Y147500D01*
X363800Y153500D02*Y148250D01*
X364550Y147500D01*
X366050D01*
X366800Y148250D01*
Y153500D02*Y148250D01*
X368600Y153500D02*X371600D01*
X370100D02*Y147500D01*
X374450D02*X376400D01*
X373400Y148550D02*X374450Y147500D01*
X373400Y152450D02*Y148550D01*
Y152450D02*X374450Y153500D01*
X376400D01*
X200000Y167000D02*Y162500D01*
Y167000D02*X201050Y168500D01*
X202700D01*
X203750Y167000D01*
Y162500D01*
X200000Y165500D02*X203750D01*
X205550D02*Y163250D01*
X206300Y162500D01*
X207800D01*
X208550Y163250D01*
Y165500D02*Y163250D01*
X211100Y168500D02*Y163250D01*
X211850Y162500D01*
X210350Y166250D02*X211850D01*
X213350Y168500D02*Y162500D01*
Y164750D02*X214100Y165500D01*
X215600D01*
X216350Y164750D01*
Y162500D01*
X218150Y164750D02*Y163250D01*
Y164750D02*X218900Y165500D01*
X220400D01*
X221150Y164750D01*
Y163250D01*
X220400Y162500D02*X221150Y163250D01*
X218900Y162500D02*X220400D01*
X218150Y163250D02*X218900Y162500D01*
X223700Y164750D02*Y162500D01*
Y164750D02*X224450Y165500D01*
X225950D01*
X222950D02*X223700Y164750D01*
X227750Y166250D02*X228500D01*
X227750Y164750D02*X228500D01*
X234050Y162500D02*X236000D01*
X233000Y163550D02*X234050Y162500D01*
X233000Y167450D02*Y163550D01*
Y167450D02*X234050Y168500D01*
X236000D01*
X237800D02*Y162500D01*
Y164750D02*X238550Y165500D01*
X240050D01*
X240800Y164750D01*
Y162500D01*
X243350Y164750D02*Y162500D01*
Y164750D02*X244100Y165500D01*
X245600D01*
X242600D02*X243350Y164750D01*
G54D68*X247400Y167000D02*Y166850D01*
G54D67*Y164750D02*Y162500D01*
X249650D02*X251900D01*
X252650Y163250D01*
X251900Y164000D02*X252650Y163250D01*
X249650Y164000D02*X251900D01*
X248900Y164750D02*X249650Y164000D01*
X248900Y164750D02*X249650Y165500D01*
X251900D01*
X252650Y164750D01*
X248900Y163250D02*X249650Y162500D01*
X255200Y168500D02*Y163250D01*
X255950Y162500D01*
X254450Y166250D02*X255950D01*
X257450Y164750D02*Y163250D01*
Y164750D02*X258200Y165500D01*
X259700D01*
X260450Y164750D01*
Y163250D01*
X259700Y162500D02*X260450Y163250D01*
X258200Y162500D02*X259700D01*
X257450Y163250D02*X258200Y162500D01*
X263000Y164750D02*Y160250D01*
X262250Y165500D02*X263000Y164750D01*
X263750Y165500D01*
X265250D01*
X266000Y164750D01*
Y163250D01*
X265250Y162500D02*X266000Y163250D01*
X263750Y162500D02*X265250D01*
X263000Y163250D02*X263750Y162500D01*
X267800Y168500D02*Y162500D01*
Y164750D02*X268550Y165500D01*
X270050D01*
X270800Y164750D01*
Y162500D01*
X273350D02*X275600D01*
X272600Y163250D02*X273350Y162500D01*
X272600Y164750D02*Y163250D01*
Y164750D02*X273350Y165500D01*
X274850D01*
X275600Y164750D01*
X272600Y164000D02*X275600D01*
Y164750D02*Y164000D01*
X278150Y164750D02*Y162500D01*
Y164750D02*X278900Y165500D01*
X280400D01*
X277400D02*X278150Y164750D01*
X284900Y168500D02*X287900D01*
X286400D02*Y162500D01*
X289700Y168500D02*Y162500D01*
Y164750D02*X290450Y165500D01*
X291950D01*
X292700Y164750D01*
Y162500D01*
X294500Y164750D02*Y163250D01*
Y164750D02*X295250Y165500D01*
X296750D01*
X297500Y164750D01*
Y163250D01*
X296750Y162500D02*X297500Y163250D01*
X295250Y162500D02*X296750D01*
X294500Y163250D02*X295250Y162500D01*
X300050Y164750D02*Y162500D01*
Y164750D02*X300800Y165500D01*
X301550D01*
X302300Y164750D01*
Y162500D01*
Y164750D02*X303050Y165500D01*
X303800D01*
X304550Y164750D01*
Y162500D01*
X299300Y165500D02*X300050Y164750D01*
X308600Y165500D02*X309350Y164750D01*
X307100Y165500D02*X308600D01*
X306350Y164750D02*X307100Y165500D01*
X306350Y164750D02*Y163250D01*
X307100Y162500D01*
X309350Y165500D02*Y163250D01*
X310100Y162500D01*
X307100D02*X308600D01*
X309350Y163250D01*
X312650Y162500D02*X314900D01*
X315650Y163250D01*
X314900Y164000D02*X315650Y163250D01*
X312650Y164000D02*X314900D01*
X311900Y164750D02*X312650Y164000D01*
X311900Y164750D02*X312650Y165500D01*
X314900D01*
X315650Y164750D01*
X311900Y163250D02*X312650Y162500D01*
X200000Y183500D02*X203000D01*
X201500D02*Y177500D01*
G54D68*X204800Y182000D02*Y181850D01*
G54D67*Y179750D02*Y177500D01*
X207050Y183500D02*Y178250D01*
X207800Y177500D01*
X206300Y181250D02*X207800D01*
X209300Y183500D02*Y178250D01*
X210050Y177500D01*
X212300D02*X214550D01*
X211550Y178250D02*X212300Y177500D01*
X211550Y179750D02*Y178250D01*
Y179750D02*X212300Y180500D01*
X213800D01*
X214550Y179750D01*
X211550Y179000D02*X214550D01*
Y179750D02*Y179000D01*
X216350Y181250D02*X217100D01*
X216350Y179750D02*X217100D01*
X221600Y178250D02*X222350Y177500D01*
X221600Y182750D02*X222350Y183500D01*
X221600Y182750D02*Y178250D01*
X224150Y180500D02*Y178250D01*
X224900Y177500D01*
X226400D01*
X227150Y178250D01*
Y180500D02*Y178250D01*
X229700Y179750D02*Y177500D01*
Y179750D02*X230450Y180500D01*
X231200D01*
X231950Y179750D01*
Y177500D01*
X228950Y180500D02*X229700Y179750D01*
X233750Y183500D02*Y177500D01*
Y179750D02*X236000Y177500D01*
X233750Y179750D02*X235250Y181250D01*
X238550Y179750D02*Y177500D01*
Y179750D02*X239300Y180500D01*
X240050D01*
X240800Y179750D01*
Y177500D01*
X237800Y180500D02*X238550Y179750D01*
X242600D02*Y178250D01*
Y179750D02*X243350Y180500D01*
X244850D01*
X245600Y179750D01*
Y178250D01*
X244850Y177500D02*X245600Y178250D01*
X243350Y177500D02*X244850D01*
X242600Y178250D02*X243350Y177500D01*
X247400Y180500D02*Y178250D01*
X248150Y177500D01*
X248900D01*
X249650Y178250D01*
Y180500D02*Y178250D01*
X250400Y177500D01*
X251150D01*
X251900Y178250D01*
Y180500D02*Y178250D01*
X254450Y179750D02*Y177500D01*
Y179750D02*X255200Y180500D01*
X255950D01*
X256700Y179750D01*
Y177500D01*
X253700Y180500D02*X254450Y179750D01*
X258500Y183500D02*X259250Y182750D01*
Y178250D01*
X258500Y177500D02*X259250Y178250D01*
X263750Y180500D02*X266750D01*
X271250Y183500D02*Y177500D01*
Y183500D02*X274250D01*
X271250Y180800D02*X273500D01*
X278300Y180500D02*X279050Y179750D01*
X276800Y180500D02*X278300D01*
X276050Y179750D02*X276800Y180500D01*
X276050Y179750D02*Y178250D01*
X276800Y177500D01*
X279050Y180500D02*Y178250D01*
X279800Y177500D01*
X276800D02*X278300D01*
X279050Y178250D01*
X281600Y183500D02*Y177500D01*
Y178250D02*X282350Y177500D01*
X283850D01*
X284600Y178250D01*
Y179750D02*Y178250D01*
X283850Y180500D02*X284600Y179750D01*
X282350Y180500D02*X283850D01*
X281600Y179750D02*X282350Y180500D01*
X287150Y179750D02*Y177500D01*
Y179750D02*X287900Y180500D01*
X289400D01*
X286400D02*X287150Y179750D01*
G54D68*X291200Y182000D02*Y181850D01*
G54D67*Y179750D02*Y177500D01*
X293450Y180500D02*X295700D01*
X292700Y179750D02*X293450Y180500D01*
X292700Y179750D02*Y178250D01*
X293450Y177500D01*
X295700D01*
X299750Y180500D02*X300500Y179750D01*
X298250Y180500D02*X299750D01*
X297500Y179750D02*X298250Y180500D01*
X297500Y179750D02*Y178250D01*
X298250Y177500D01*
X300500Y180500D02*Y178250D01*
X301250Y177500D01*
X298250D02*X299750D01*
X300500Y178250D01*
X303800Y183500D02*Y178250D01*
X304550Y177500D01*
X303050Y181250D02*X304550D01*
G54D68*X306050Y182000D02*Y181850D01*
G54D67*Y179750D02*Y177500D01*
X307550Y179750D02*Y178250D01*
Y179750D02*X308300Y180500D01*
X309800D01*
X310550Y179750D01*
Y178250D01*
X309800Y177500D02*X310550Y178250D01*
X308300Y177500D02*X309800D01*
X307550Y178250D02*X308300Y177500D01*
X313100Y179750D02*Y177500D01*
Y179750D02*X313850Y180500D01*
X314600D01*
X315350Y179750D01*
Y177500D01*
X312350Y180500D02*X313100Y179750D01*
X320600Y183500D02*Y177500D01*
X322550Y183500D02*X323600Y182450D01*
Y178550D01*
X322550Y177500D02*X323600Y178550D01*
X319850Y177500D02*X322550D01*
X319850Y183500D02*X322550D01*
X326150Y179750D02*Y177500D01*
Y179750D02*X326900Y180500D01*
X328400D01*
X325400D02*X326150Y179750D01*
X332450Y180500D02*X333200Y179750D01*
X330950Y180500D02*X332450D01*
X330200Y179750D02*X330950Y180500D01*
X330200Y179750D02*Y178250D01*
X330950Y177500D01*
X333200Y180500D02*Y178250D01*
X333950Y177500D01*
X330950D02*X332450D01*
X333200Y178250D01*
X335750Y180500D02*Y178250D01*
X336500Y177500D01*
X337250D01*
X338000Y178250D01*
Y180500D02*Y178250D01*
X338750Y177500D01*
X339500D01*
X340250Y178250D01*
Y180500D02*Y178250D01*
G54D68*X342050Y182000D02*Y181850D01*
G54D67*Y179750D02*Y177500D01*
X344300Y179750D02*Y177500D01*
Y179750D02*X345050Y180500D01*
X345800D01*
X346550Y179750D01*
Y177500D01*
X343550Y180500D02*X344300Y179750D01*
X350600Y180500D02*X351350Y179750D01*
X349100Y180500D02*X350600D01*
X348350Y179750D02*X349100Y180500D01*
X348350Y179750D02*Y178250D01*
X349100Y177500D01*
X350600D01*
X351350Y178250D01*
X348350Y176000D02*X349100Y175250D01*
X350600D01*
X351350Y176000D01*
Y180500D02*Y176000D01*
M02*
