G04 start of page 6 for group -4063 idx -4063 *
G04 Title: (unknown), componentmask *
G04 Creator: pcb 20140316 *
G04 CreationDate: Tue 28 Aug 2018 05:55:18 PM GMT UTC *
G04 For: thomasc *
G04 Format: Gerber/RS-274X *
G04 PCB-Dimensions (mil): 5000.00 1250.00 *
G04 PCB-Coordinate-Origin: lower left *
%MOIN*%
%FSLAX25Y25*%
%LNTOPMASK*%
%ADD50R,0.0600X0.0600*%
%ADD49R,0.0800X0.0800*%
%ADD48C,0.0001*%
%ADD47C,0.0760*%
%ADD46C,0.1060*%
%ADD45C,0.0860*%
%ADD44C,0.0660*%
G54D44*X260000Y72500D03*
Y52500D03*
X265000Y62500D03*
X285000Y72500D03*
Y52500D03*
X290000Y62500D03*
G54D45*X225000Y100000D03*
G54D46*X237500Y112500D03*
Y87500D03*
G54D45*X225000Y25000D03*
G54D46*X237500Y37500D03*
Y12500D03*
G54D47*X385000Y20000D03*
G54D48*G36*
X381200Y33800D02*Y26200D01*
X388800D01*
Y33800D01*
X381200D01*
G37*
G54D47*X375000Y20000D03*
Y30000D03*
X365000Y20000D03*
Y30000D03*
X355000Y20000D03*
Y30000D03*
X345000Y20000D03*
X375000Y70000D03*
X365000D03*
Y60000D03*
G54D48*G36*
X371200Y63800D02*Y56200D01*
X378800D01*
Y63800D01*
X371200D01*
G37*
G54D47*X355000Y60000D03*
X345000D03*
Y30000D03*
X350000Y95000D03*
Y105000D03*
X355000Y70000D03*
X345000D03*
X335000Y20000D03*
X325000D03*
X315000D03*
X335000Y30000D03*
X325000D03*
X315000D03*
X312500Y95000D03*
Y105000D03*
X335000Y70000D03*
X325000D03*
Y60000D03*
X335000D03*
G54D45*X475000Y100000D03*
G54D46*X462500Y112500D03*
X487500D03*
Y87500D03*
X462500D03*
G54D45*X475000Y25000D03*
G54D46*X462500Y37500D03*
Y12500D03*
X487500Y37500D03*
Y12500D03*
G54D44*X60000Y72500D03*
Y52500D03*
X65000Y62500D03*
X85000Y72500D03*
Y52500D03*
X90000Y62500D03*
G54D45*X25000Y100000D03*
Y25000D03*
G54D46*X12500Y112500D03*
X37500D03*
Y87500D03*
Y37500D03*
Y12500D03*
X12500Y87500D03*
Y37500D03*
Y12500D03*
G54D44*X160000Y72500D03*
Y52500D03*
X165000Y62500D03*
X185000Y72500D03*
Y52500D03*
X190000Y62500D03*
X170000Y112500D03*
Y92500D03*
G54D46*X212500Y112500D03*
Y87500D03*
G54D44*X175000Y102500D03*
G54D45*X125000Y100000D03*
G54D46*X112500Y112500D03*
X137500D03*
Y87500D03*
X112500D03*
G54D44*X170000Y12500D03*
Y32500D03*
X165000Y22500D03*
G54D46*X212500Y12500D03*
G54D45*X125000Y25000D03*
G54D46*X137500Y12500D03*
X112500D03*
Y37500D03*
X137500D03*
X212500D03*
G54D49*X377500Y100000D02*X380000D01*
X395000D02*X397500D01*
G54D50*X387500Y92500D02*Y90000D01*
M02*
