G04 start of page 9 for group -4078 idx -4078 *
G04 Title: (unknown), bottomsilk *
G04 Creator: pcb 20140316 *
G04 CreationDate: Tue 28 Aug 2018 05:55:18 PM GMT UTC *
G04 For: thomasc *
G04 Format: Gerber/RS-274X *
G04 PCB-Dimensions (mil): 5000.00 1250.00 *
G04 PCB-Coordinate-Origin: lower left *
%MOIN*%
%FSLAX25Y25*%
%LNBOTTOMSILK*%
%ADD62C,0.0150*%
%ADD61C,0.0120*%
%ADD60C,0.0100*%
G54D60*X185000Y112750D02*X188000Y109000D01*
X185000Y112750D02*X188750D01*
X188000Y109000D02*Y115000D01*
X191300D02*X194300Y109000D01*
X190550D02*X194300D01*
X196100D02*Y115000D01*
Y112750D02*X198350Y115000D01*
X196100Y112750D02*X197600Y111250D01*
X19750Y74000D02*X20500Y74750D01*
X18250Y74000D02*X19750D01*
X17500Y74750D02*X18250Y74000D01*
X17500Y74750D02*Y79250D01*
X18250Y80000D01*
X19750Y76700D02*X20500Y77450D01*
X17500Y76700D02*X19750D01*
X18250Y80000D02*X19750D01*
X20500Y79250D01*
Y77450D02*Y79250D01*
X22300D02*X23050Y80000D01*
X22300Y78050D02*Y79250D01*
Y78050D02*X23350Y77000D01*
X24250D01*
X25300Y78050D01*
Y79250D01*
X24550Y80000D02*X25300Y79250D01*
X23050Y80000D02*X24550D01*
X22300Y75950D02*X23350Y77000D01*
X22300Y74750D02*Y75950D01*
Y74750D02*X23050Y74000D01*
X24550D01*
X25300Y74750D01*
Y75950D01*
X24250Y77000D02*X25300Y75950D01*
X27100Y79250D02*X27850Y80000D01*
X27100Y74750D02*Y79250D01*
Y74750D02*X27850Y74000D01*
X29350D01*
X30100Y74750D01*
Y79250D01*
X29350Y80000D02*X30100Y79250D01*
X27850Y80000D02*X29350D01*
X27100Y78500D02*X30100Y75500D01*
X31900Y74000D02*X34900D01*
X35650Y74750D01*
Y76250D01*
X34900Y77000D02*X35650Y76250D01*
X32650Y77000D02*X34900D01*
X32650Y74000D02*Y80000D01*
X33850Y77000D02*X35650Y80000D01*
X119750Y74000D02*X120500Y74750D01*
X118250Y74000D02*X119750D01*
X117500Y74750D02*X118250Y74000D01*
X117500Y74750D02*Y79250D01*
X118250Y80000D01*
X119750Y76700D02*X120500Y77450D01*
X117500Y76700D02*X119750D01*
X118250Y80000D02*X119750D01*
X120500Y79250D01*
Y77450D02*Y79250D01*
X122300D02*X123050Y80000D01*
X122300Y78050D02*Y79250D01*
Y78050D02*X123350Y77000D01*
X124250D01*
X125300Y78050D01*
Y79250D01*
X124550Y80000D02*X125300Y79250D01*
X123050Y80000D02*X124550D01*
X122300Y75950D02*X123350Y77000D01*
X122300Y74750D02*Y75950D01*
Y74750D02*X123050Y74000D01*
X124550D01*
X125300Y74750D01*
Y75950D01*
X124250Y77000D02*X125300Y75950D01*
X127100Y79250D02*X127850Y80000D01*
X127100Y74750D02*Y79250D01*
Y74750D02*X127850Y74000D01*
X129350D01*
X130100Y74750D01*
Y79250D01*
X129350Y80000D02*X130100Y79250D01*
X127850Y80000D02*X129350D01*
X127100Y78500D02*X130100Y75500D01*
X131900Y74000D02*X134900D01*
X135650Y74750D01*
Y76250D01*
X134900Y77000D02*X135650Y76250D01*
X132650Y77000D02*X134900D01*
X132650Y74000D02*Y80000D01*
X133850Y77000D02*X135650Y80000D01*
X219750Y74000D02*X220500Y74750D01*
X218250Y74000D02*X219750D01*
X217500Y74750D02*X218250Y74000D01*
X217500Y74750D02*Y79250D01*
X218250Y80000D01*
X219750Y76700D02*X220500Y77450D01*
X217500Y76700D02*X219750D01*
X218250Y80000D02*X219750D01*
X220500Y79250D01*
Y77450D02*Y79250D01*
X222300D02*X223050Y80000D01*
X222300Y78050D02*Y79250D01*
Y78050D02*X223350Y77000D01*
X224250D01*
X225300Y78050D01*
Y79250D01*
X224550Y80000D02*X225300Y79250D01*
X223050Y80000D02*X224550D01*
X222300Y75950D02*X223350Y77000D01*
X222300Y74750D02*Y75950D01*
Y74750D02*X223050Y74000D01*
X224550D01*
X225300Y74750D01*
Y75950D01*
X224250Y77000D02*X225300Y75950D01*
X227100Y79250D02*X227850Y80000D01*
X227100Y74750D02*Y79250D01*
Y74750D02*X227850Y74000D01*
X229350D01*
X230100Y74750D01*
Y79250D01*
X229350Y80000D02*X230100Y79250D01*
X227850Y80000D02*X229350D01*
X227100Y78500D02*X230100Y75500D01*
X231900Y74000D02*X234900D01*
X235650Y74750D01*
Y76250D01*
X234900Y77000D02*X235650Y76250D01*
X232650Y77000D02*X234900D01*
X232650Y74000D02*Y80000D01*
X233850Y77000D02*X235650Y80000D01*
X184750Y11500D02*X185500Y12250D01*
X183250Y11500D02*X184750D01*
X182500Y12250D02*X183250Y11500D01*
X182500Y12250D02*Y16750D01*
X183250Y17500D01*
X184750Y14200D02*X185500Y14950D01*
X182500Y14200D02*X184750D01*
X183250Y17500D02*X184750D01*
X185500Y16750D01*
Y14950D02*Y16750D01*
X187300D02*X188050Y17500D01*
X187300Y15550D02*Y16750D01*
Y15550D02*X188350Y14500D01*
X189250D01*
X190300Y15550D01*
Y16750D01*
X189550Y17500D02*X190300Y16750D01*
X188050Y17500D02*X189550D01*
X187300Y13450D02*X188350Y14500D01*
X187300Y12250D02*Y13450D01*
Y12250D02*X188050Y11500D01*
X189550D01*
X190300Y12250D01*
Y13450D01*
X189250Y14500D02*X190300Y13450D01*
X192100Y16750D02*X192850Y17500D01*
X192100Y12250D02*Y16750D01*
Y12250D02*X192850Y11500D01*
X194350D01*
X195100Y12250D01*
Y16750D01*
X194350Y17500D02*X195100Y16750D01*
X192850Y17500D02*X194350D01*
X192100Y16000D02*X195100Y13000D01*
X196900Y11500D02*X199900D01*
X200650Y12250D01*
Y13750D01*
X199900Y14500D02*X200650Y13750D01*
X197650Y14500D02*X199900D01*
X197650Y11500D02*Y17500D01*
X198850Y14500D02*X200650Y17500D01*
G54D61*X390000Y58000D02*Y68500D01*
X391500Y70000D01*
X394500D01*
X396000Y68500D01*
Y58000D02*Y68500D01*
X401100Y65500D02*Y70000D01*
Y65500D02*X402600Y64000D01*
X404100D01*
X405600Y65500D01*
Y70000D01*
X399600Y64000D02*X401100Y65500D01*
X409200D02*Y68500D01*
Y65500D02*X410700Y64000D01*
X413700D01*
X415200Y65500D01*
Y68500D01*
X413700Y70000D02*X415200Y68500D01*
X410700Y70000D02*X413700D01*
X409200Y68500D02*X410700Y70000D01*
X425700Y58000D02*Y70000D01*
X429600Y58000D02*X431700Y60100D01*
Y67900D01*
X429600Y70000D02*X431700Y67900D01*
X424200Y70000D02*X429600D01*
X424200Y58000D02*X429600D01*
G54D62*X435300Y61000D02*Y61300D01*
G54D61*Y65500D02*Y70000D01*
X442800Y64000D02*X444300Y65500D01*
X439800Y64000D02*X442800D01*
X438300Y65500D02*X439800Y64000D01*
X438300Y65500D02*Y68500D01*
X439800Y70000D01*
X442800D01*
X444300Y68500D01*
X438300Y73000D02*X439800Y74500D01*
X442800D01*
X444300Y73000D01*
Y64000D02*Y73000D01*
G54D62*X447900Y61000D02*Y61300D01*
G54D61*Y65500D02*Y70000D01*
X452400Y58000D02*Y68500D01*
X453900Y70000D01*
X450900Y62500D02*X453900D01*
X461400Y64000D02*X462900Y65500D01*
X458400Y64000D02*X461400D01*
X456900Y65500D02*X458400Y64000D01*
X456900Y65500D02*Y68500D01*
X458400Y70000D01*
X462900Y64000D02*Y68500D01*
X464400Y70000D01*
X458400D02*X461400D01*
X462900Y68500D01*
X468000Y58000D02*Y68500D01*
X469500Y70000D01*
G54D60*X374750Y104000D02*X375500Y104750D01*
X373250Y104000D02*X374750D01*
X372500Y104750D02*X373250Y104000D01*
X372500Y104750D02*Y109250D01*
X373250Y110000D01*
X374750Y106700D02*X375500Y107450D01*
X372500Y106700D02*X374750D01*
X373250Y110000D02*X374750D01*
X375500Y109250D01*
Y107450D02*Y109250D01*
X377300D02*X378050Y110000D01*
X377300Y108050D02*Y109250D01*
Y108050D02*X378350Y107000D01*
X379250D01*
X380300Y108050D01*
Y109250D01*
X379550Y110000D02*X380300Y109250D01*
X378050Y110000D02*X379550D01*
X377300Y105950D02*X378350Y107000D01*
X377300Y104750D02*Y105950D01*
Y104750D02*X378050Y104000D01*
X379550D01*
X380300Y104750D01*
Y105950D01*
X379250Y107000D02*X380300Y105950D01*
X382100Y109250D02*X382850Y110000D01*
X382100Y104750D02*Y109250D01*
Y104750D02*X382850Y104000D01*
X384350D01*
X385100Y104750D01*
Y109250D01*
X384350Y110000D02*X385100Y109250D01*
X382850Y110000D02*X384350D01*
X382100Y108500D02*X385100Y105500D01*
X386900Y104000D02*X389900D01*
X390650Y104750D01*
Y106250D01*
X389900Y107000D02*X390650Y106250D01*
X387650Y107000D02*X389900D01*
X387650Y104000D02*Y110000D01*
X388850Y107000D02*X390650Y110000D01*
X153500Y55500D02*Y69500D01*
X166000Y54500D02*X170000Y58500D01*
Y66500D01*
X166000Y70500D01*
X53500Y55500D02*Y69500D01*
X66000Y54500D02*X70000Y58500D01*
Y66500D01*
X66000Y70500D01*
X15000Y52500D02*X40000D01*
Y62500D01*
X15000D01*
Y52500D01*
Y62500D02*X40000D01*
Y72500D01*
X15000D01*
Y62500D01*
X78500Y55500D02*Y69500D01*
X91000Y54500D02*X95000Y58500D01*
Y66500D01*
X91000Y70500D01*
X115000Y52500D02*X140000D01*
Y62500D01*
X115000D01*
Y52500D01*
Y62500D02*X140000D01*
Y72500D01*
X115000D01*
Y62500D01*
X163500Y95500D02*Y109500D01*
X176000Y94500D02*X180000Y98500D01*
Y106500D01*
X176000Y110500D01*
X176500Y29500D02*Y15500D01*
X164000Y30500D02*X160000Y26500D01*
Y18500D01*
X164000Y14500D01*
X253500Y55500D02*Y69500D01*
X266000Y54500D02*X270000Y58500D01*
Y66500D01*
X266000Y70500D01*
X215000Y52500D02*X240000D01*
Y62500D01*
X215000D01*
Y52500D01*
Y62500D02*X240000D01*
Y72500D01*
X215000D01*
Y62500D01*
X178500Y55500D02*Y69500D01*
X191000Y54500D02*X195000Y58500D01*
Y66500D01*
X191000Y70500D01*
X187500Y105000D02*Y80000D01*
X197500D01*
Y105000D02*Y80000D01*
X187500Y105000D02*X197500D01*
X185000Y47500D02*Y22500D01*
X195000D01*
Y47500D02*Y22500D01*
X185000Y47500D02*X195000D01*
G54D62*X380000Y75000D02*Y55000D01*
X320000D02*X380000D01*
X320000Y75000D02*Y55000D01*
Y75000D02*X380000D01*
G54D60*X378000Y55000D02*Y51000D01*
X374000D02*X378000D01*
X374000Y55000D02*Y51000D01*
X360000Y110000D02*Y85000D01*
X370000D01*
Y110000D02*Y85000D01*
X360000Y110000D02*X370000D01*
X278500Y55500D02*Y69500D01*
X291000Y54500D02*X295000Y58500D01*
Y66500D01*
X291000Y70500D01*
M02*
